<svg width="500" height="500" viewBox="0 0 500 500" fill="none" xmlns="http://www.w3.org/2000/svg">
<g clip-path="url(#clip0_7_687)">
<rect width="500" height="500" fill="#007EBB"/>
<g opacity="0.1" clip-path="url(#clip1_7_687)">
<path d="M60.6886 260.89H-39.0849C-43.5131 260.89 -47.1011 264.479 -47.1011 268.906V589.435C-47.1011 593.864 -43.5131 597.452 -39.0849 597.452H60.6886C65.1167 597.452 68.7047 593.864 68.7047 589.435V268.906C68.7047 264.479 65.1167 260.89 60.6886 260.89Z" fill="white"/>
<path d="M10.8381 101.547C-25.4654 101.547 -55 131.049 -55 167.313C-55 203.592 -25.4654 233.106 10.8381 233.106C47.1127 233.106 76.6232 203.59 76.6232 167.313C76.6248 131.049 47.1127 101.547 10.8381 101.547Z" fill="white"/>
<path d="M314.47 252.923C274.397 252.923 244.774 270.15 226.807 289.724V268.906C226.807 264.479 223.219 260.89 218.791 260.89H123.24C118.812 260.89 115.224 264.479 115.224 268.906V589.436C115.224 593.864 118.812 597.452 123.24 597.452H222.796C227.224 597.452 230.812 593.864 230.812 589.436V430.848C230.812 377.407 245.328 356.588 282.58 356.588C323.151 356.588 326.375 389.964 326.375 433.597V589.437C326.375 593.865 329.963 597.453 334.392 597.453H433.984C438.412 597.453 442 593.865 442 589.437V413.621C442 334.157 426.848 252.923 314.47 252.923Z" fill="white"/>
</g>
<rect width="500" height="500" fill="url(#paint0_radial_7_687)" fill-opacity="0.2"/>
<g clip-path="url(#clip2_7_687)">
<path d="M254.973 411.553C245.421 410.626 234.267 406.529 223.59 400.026C215.986 395.394 208.358 389.097 200.351 380.841C193.101 373.366 187.422 366.221 180.791 356.232C176.03 349.06 283.01 297.757 286.619 296.018C288.832 294.953 290.517 297.368 317.269 292.99C326.655 291.454 335.988 290.164 338.009 290.122C342.42 290.033 342.217 289.776 343.958 297.658C347.744 314.804 348.419 339.548 345.423 351.358C340.538 370.616 326.633 389.181 308.717 400.364C301.906 404.616 292.708 408.512 285.553 410.177C278.165 411.896 264.734 412.5 254.973 411.553Z" fill="url(#paint1_linear_7_687)"/>
<path d="M193.552 296.613C199.399 289.864 201.61 287.409 207.737 280.856C222.61 264.951 248.009 240.702 284.742 207.339L294.001 198.929L299.824 208.107C306.79 219.084 315.059 232.823 319.821 241.329C324.173 249.103 331.773 263.507 331.756 263.949C331.74 264.359 329.979 265.628 308.635 280.608C287.863 295.188 283.505 297.315 282.946 298.098C282.545 298.66 281.306 298.258 243.97 298.655C221.629 298.892 200.666 299.083 197.385 299.079L191.421 299.072L193.552 296.613Z" fill="url(#paint2_linear_7_687)"/>
<path d="M185.093 363.76C181.112 358.347 174.025 347.113 169.588 339.182L167.505 335.46L168.296 333.899C170.014 330.511 178.329 316.971 181.28 312.756C182.998 310.302 186.041 306.204 188.042 303.649L191.681 299.005L197.003 298.986C199.929 298.976 220.439 298.751 242.58 298.485C264.721 298.22 282.886 298.046 282.946 298.098C283.007 298.149 279.81 300.481 275.842 303.279C258.374 315.596 186.791 365.673 186.653 365.673C186.569 365.673 185.867 364.812 185.093 363.76Z" fill="url(#paint3_linear_7_687)"/>
<path d="M277.66 208.364C272.861 206.146 227.999 185.808 223.503 183.813C221.763 183.041 220.418 182.283 220.514 182.128C220.962 181.404 217.469 177.126 207.182 165.802C203.45 161.695 197.472 155.07 193.896 151.081L187.395 143.828L198.104 133.209C208.879 122.526 214.307 117.828 222.042 112.49C235.555 103.165 250.283 96.4641 266.557 92.2366C274.598 90.148 280.031 89.3006 286.958 89.055C296.109 88.7306 317.409 89.8948 325.029 91.1358C328.162 91.6461 333.59 93.0333 333.59 93.3236C333.59 93.4592 331.664 93.6848 329.309 93.825C311.657 94.8761 301.784 98.6756 291.934 108.209C284.385 115.515 279.723 122.506 277.15 130.378C273.639 141.123 273.517 151.99 276.769 164.242C279.44 174.304 283.194 182.075 292.773 197.375L293.951 199.257L292.38 200.654C291.516 201.422 289.081 203.608 286.968 205.512C284.856 207.415 282.797 209.252 282.393 209.593C281.69 210.185 281.482 210.131 277.66 208.364Z" fill="url(#paint4_linear_7_687)"/>
<path d="M157.941 306.618C156.89 304.574 154.775 296.569 153.202 288.676C152.135 283.323 151.707 274.59 151.703 258.074C151.696 233.979 153.138 221.689 157.93 204.993C161.6 192.208 169.742 173.195 175.168 164.74L176.967 161.937L186.738 166.311C214.186 178.6 282.101 209.329 282.393 209.593C282.543 209.727 276.149 215.831 268.185 223.156C249.66 240.195 241.609 247.771 228.69 260.324C222.919 265.932 218.18 270.266 218.096 270.014C217.907 269.446 213.547 272.173 190.861 287.049C170.411 300.458 159.206 307.62 158.678 307.62C158.556 307.62 158.225 307.169 157.941 306.618Z" fill="url(#paint5_linear_7_687)"/>
</g>
</g>
<defs>
<radialGradient id="paint0_radial_7_687" cx="0" cy="0" r="1" gradientUnits="userSpaceOnUse" gradientTransform="translate(250 265.5) rotate(179.572) scale(250.274 582.348)">
<stop/>
<stop offset="1" stop-color="#666666" stop-opacity="0"/>
</radialGradient>
<linearGradient id="paint1_linear_7_687" x1="245.511" y1="324.562" x2="326.97" y2="384.962" gradientUnits="userSpaceOnUse">
<stop stop-color="white"/>
<stop offset="1" stop-color="#CCCCCC"/>
</linearGradient>
<linearGradient id="paint2_linear_7_687" x1="197.385" y1="299.079" x2="319.821" y2="241.329" gradientUnits="userSpaceOnUse">
<stop stop-color="white"/>
<stop offset="1" stop-color="#CECECE"/>
</linearGradient>
<linearGradient id="paint3_linear_7_687" x1="169.588" y1="339.182" x2="275.842" y2="303.279" gradientUnits="userSpaceOnUse">
<stop stop-color="#C4C4C4"/>
<stop offset="1" stop-color="#F6F6F6"/>
</linearGradient>
<linearGradient id="paint4_linear_7_687" x1="220.514" y1="182.128" x2="325.029" y2="91.1358" gradientUnits="userSpaceOnUse">
<stop stop-color="#D5D5D5"/>
<stop offset="1" stop-color="#FCFCFC"/>
</linearGradient>
<linearGradient id="paint5_linear_7_687" x1="151.703" y1="234.778" x2="277.66" y2="208.364" gradientUnits="userSpaceOnUse">
<stop stop-color="#E6E6E6"/>
<stop offset="1" stop-color="white"/>
</linearGradient>
<clipPath id="clip0_7_687">
<rect width="500" height="500" fill="white"/>
</clipPath>
<clipPath id="clip1_7_687">
<rect width="497" height="497" fill="white" transform="translate(-55 101)"/>
</clipPath>
<clipPath id="clip2_7_687">
<rect width="323" height="323" fill="white" transform="translate(88 89)"/>
</clipPath>
</defs>
</svg>
