<svg width="304" height="424" viewBox="0 0 304 424" fill="none" xmlns="http://www.w3.org/2000/svg">
<rect width="304" height="424" rx="16" fill="black"/>
<g filter="url(#filter0_i_1972_300)">
<path d="M228.47 187.695L179.515 194.009L94.6836 242.986C101.693 252.564 109.943 261.201 119.338 268.568C130.342 276.409 143.708 282.126 159.593 282.721C204.695 284.433 229.848 249.778 230.994 210.976C231.231 202.964 230.269 195.25 228.47 187.695Z" fill="#00FF80"/>
<path d="M103.645 194.008C95.4085 202.957 87.1401 213.591 82.959 223.868C86.3477 230.568 90.2741 236.96 94.6838 242.985L179.515 194.008H103.645ZM97.9735 247.276C98.4713 247.901 98.9744 248.521 99.4832 249.137C98.9748 248.521 98.4709 247.901 97.9735 247.276ZM103.123 253.384C103.486 253.787 103.864 254.178 104.232 254.577C103.864 254.178 103.486 253.788 103.123 253.384ZM107.695 258.191C108.072 258.57 108.444 258.953 108.826 259.327C108.444 258.953 108.072 258.57 107.695 258.191ZM113.291 263.493C113.649 263.811 114.012 264.124 114.374 264.439C114.012 264.124 113.648 263.811 113.291 263.493Z" fill="#0080FF"/>
<path d="M194.102 119.014L126.745 172.194C126.745 172.194 115.227 181.423 103.645 194.008H179.515L180.042 193.704L220.939 165.996C214.002 150.48 204.241 135.186 194.102 119.014ZM103.645 194.008C100.78 197.121 97.9306 200.431 95.2313 203.869C97.928 200.439 100.783 197.118 103.645 194.008ZM94.5159 204.769C93.9542 205.497 93.4191 206.234 92.8755 206.971C93.419 206.235 93.9544 205.496 94.5159 204.769ZM91.3549 209.065C90.8977 209.714 90.4593 210.364 90.0205 211.018C90.4592 210.366 90.8979 209.713 91.3549 209.065ZM87.8358 214.383C87.7507 214.523 87.6704 214.662 87.5863 214.802C87.6704 214.662 87.7507 214.523 87.8358 214.383Z" fill="#00EAFF"/>
<path d="M90.0485 82.3203C76.5743 103.379 68.7231 128.193 67.7485 154.046C67.1502 170.647 69.4155 186.945 74.1842 202.248L126.745 172.194L185.02 126.185L127.419 98.773L90.0485 82.3203ZM207.759 141.14C208.036 141.607 208.322 142.076 208.596 142.541C208.322 142.076 208.035 141.606 207.759 141.14ZM212.564 149.476C212.937 150.146 213.295 150.814 213.661 151.483C213.295 150.815 212.937 150.145 212.564 149.476ZM216.467 156.776C216.828 157.477 217.191 158.178 217.542 158.879C217.192 158.178 216.828 157.476 216.467 156.776Z" fill="#00A9FF"/>
<path d="M193.653 22.7093C162.18 23.1934 131.843 36.1636 108.598 59.2421C105.623 62.1955 102.803 65.2928 100.125 68.5063L127.42 98.7725L185.021 126.184L194.104 119.013C190.483 113.237 186.823 107.361 183.214 101.307C167.393 74.7699 175.852 32.475 205.749 23.1462C203.823 22.977 201.893 22.8549 199.961 22.7799C197.855 22.7005 195.751 22.6771 193.653 22.7093ZM202.957 133.208C203.396 133.921 203.835 134.633 204.269 135.344C203.837 134.637 203.394 133.917 202.957 133.208Z" fill="#00FF95"/>
</g>
<path d="M21 340V305.6H36.05C38.25 305.6 40 305.883 41.3 306.45C42.6333 306.983 43.6167 307.733 44.25 308.7C44.9167 309.667 45.3667 310.817 45.6 312.15C45.8333 313.45 45.95 314.883 45.95 316.45C45.95 317.95 45.8333 319.367 45.6 320.7C45.4 322 44.9667 323.15 44.3 324.15C43.6333 325.15 42.6333 325.933 41.3 326.5C39.9667 327.067 38.1833 327.35 35.95 327.35H25.3V340H21ZM25.3 323.6H34.55C36.1833 323.6 37.4667 323.467 38.4 323.2C39.3667 322.933 40.0833 322.517 40.55 321.95C41.0167 321.35 41.3167 320.6 41.45 319.7C41.5833 318.8 41.65 317.717 41.65 316.45C41.65 315.183 41.5833 314.1 41.45 313.2C41.35 312.3 41.0667 311.567 40.6 311C40.1667 310.433 39.4667 310.017 38.5 309.75C37.5667 309.45 36.2833 309.3 34.65 309.3H25.3V323.6ZM62.5172 340.4C60.4172 340.4 58.6672 340.267 57.2672 340C55.9005 339.767 54.8172 339.367 54.0172 338.8C53.2172 338.233 52.6172 337.45 52.2172 336.45C51.8505 335.45 51.6172 334.2 51.5172 332.7C51.4172 331.167 51.3672 329.35 51.3672 327.25C51.3672 325.15 51.4172 323.35 51.5172 321.85C51.6172 320.317 51.8505 319.05 52.2172 318.05C52.6172 317.05 53.2172 316.267 54.0172 315.7C54.8172 315.133 55.9005 314.733 57.2672 314.5C58.6672 314.233 60.4172 314.1 62.5172 314.1C64.6505 314.1 66.4005 314.233 67.7672 314.5C69.1339 314.733 70.2172 315.133 71.0172 315.7C71.8505 316.267 72.4505 317.05 72.8172 318.05C73.2172 319.05 73.4672 320.317 73.5672 321.85C73.6672 323.35 73.7172 325.15 73.7172 327.25C73.7172 329.35 73.6672 331.167 73.5672 332.7C73.4672 334.2 73.2172 335.45 72.8172 336.45C72.4505 337.45 71.8505 338.233 71.0172 338.8C70.2172 339.367 69.1339 339.767 67.7672 340C66.4005 340.267 64.6505 340.4 62.5172 340.4ZM62.5172 336.95C64.3172 336.95 65.7005 336.833 66.6672 336.6C67.6339 336.367 68.3172 335.917 68.7172 335.25C69.1505 334.583 69.4005 333.617 69.4672 332.35C69.5672 331.05 69.6172 329.35 69.6172 327.25C69.6172 325.15 69.5672 323.467 69.4672 322.2C69.4005 320.9 69.1505 319.917 68.7172 319.25C68.3172 318.583 67.6339 318.133 66.6672 317.9C65.7005 317.667 64.3172 317.55 62.5172 317.55C60.7505 317.55 59.3672 317.667 58.3672 317.9C57.4005 318.133 56.7172 318.583 56.3172 319.25C55.9172 319.917 55.6672 320.9 55.5672 322.2C55.4672 323.467 55.4172 325.15 55.4172 327.25C55.4172 329.35 55.4672 331.05 55.5672 332.35C55.6672 333.617 55.9172 334.583 56.3172 335.25C56.7172 335.917 57.4005 336.367 58.3672 336.6C59.3672 336.833 60.7505 336.95 62.5172 336.95ZM85.6863 340L77.5363 314.5H81.7863L87.9863 335.05H88.3363L94.5363 314.5H98.3863L104.586 335.05H104.986L111.136 314.5H115.236L107.086 340H102.386L96.5363 321.2H96.1863L90.3863 340H85.6863ZM130.567 340.4C128.501 340.4 126.767 340.267 125.367 340C124.001 339.733 122.901 339.3 122.067 338.7C121.234 338.067 120.601 337.25 120.167 336.25C119.734 335.217 119.451 333.967 119.317 332.5C119.184 331.033 119.117 329.3 119.117 327.3C119.117 324.933 119.217 322.917 119.417 321.25C119.617 319.55 120.067 318.183 120.767 317.15C121.501 316.083 122.634 315.317 124.167 314.85C125.701 314.35 127.767 314.1 130.367 314.1C132.334 314.1 133.934 314.25 135.167 314.55C136.434 314.85 137.434 315.317 138.167 315.95C138.901 316.583 139.434 317.433 139.767 318.5C140.134 319.533 140.367 320.783 140.467 322.25C140.567 323.683 140.617 325.35 140.617 327.25V328.6H123.167C123.167 330.333 123.251 331.75 123.417 332.85C123.584 333.95 123.917 334.8 124.417 335.4C124.951 336 125.767 336.417 126.867 336.65C128.001 336.883 129.534 337 131.467 337C132.267 337 133.151 336.983 134.117 336.95C135.084 336.883 136.051 336.8 137.017 336.7C137.984 336.6 138.851 336.5 139.617 336.4V339.7C138.917 339.833 138.051 339.95 137.017 340.05C136.017 340.15 134.951 340.233 133.817 340.3C132.717 340.367 131.634 340.4 130.567 340.4ZM136.667 326.55V325.2C136.667 323.467 136.567 322.1 136.367 321.1C136.167 320.067 135.817 319.3 135.317 318.8C134.851 318.267 134.201 317.917 133.367 317.75C132.534 317.583 131.501 317.5 130.267 317.5C128.667 317.5 127.401 317.617 126.467 317.85C125.534 318.05 124.834 318.433 124.367 319C123.901 319.567 123.584 320.383 123.417 321.45C123.251 322.517 123.167 323.933 123.167 325.7H137.617L136.667 326.55ZM147.597 340V314.5H151.247L151.447 319.4H151.747C152.18 317.967 152.797 316.867 153.597 316.1C154.397 315.333 155.364 314.817 156.497 314.55C157.63 314.25 158.88 314.1 160.247 314.1V318.1C157.947 318.1 156.18 318.467 154.947 319.2C153.714 319.933 152.864 321.067 152.397 322.6C151.93 324.133 151.697 326.067 151.697 328.4V340H147.597ZM175.612 340.4C173.545 340.4 171.812 340.267 170.412 340C169.045 339.733 167.945 339.3 167.112 338.7C166.279 338.067 165.645 337.25 165.212 336.25C164.779 335.217 164.495 333.967 164.362 332.5C164.229 331.033 164.162 329.3 164.162 327.3C164.162 324.933 164.262 322.917 164.462 321.25C164.662 319.55 165.112 318.183 165.812 317.15C166.545 316.083 167.679 315.317 169.212 314.85C170.745 314.35 172.812 314.1 175.412 314.1C177.379 314.1 178.979 314.25 180.212 314.55C181.479 314.85 182.479 315.317 183.212 315.95C183.945 316.583 184.479 317.433 184.812 318.5C185.179 319.533 185.412 320.783 185.512 322.25C185.612 323.683 185.662 325.35 185.662 327.25V328.6H168.212C168.212 330.333 168.295 331.75 168.462 332.85C168.629 333.95 168.962 334.8 169.462 335.4C169.995 336 170.812 336.417 171.912 336.65C173.045 336.883 174.579 337 176.512 337C177.312 337 178.195 336.983 179.162 336.95C180.129 336.883 181.095 336.8 182.062 336.7C183.029 336.6 183.895 336.5 184.662 336.4V339.7C183.962 339.833 183.095 339.95 182.062 340.05C181.062 340.15 179.995 340.233 178.862 340.3C177.762 340.367 176.679 340.4 175.612 340.4ZM181.712 326.55V325.2C181.712 323.467 181.612 322.1 181.412 321.1C181.212 320.067 180.862 319.3 180.362 318.8C179.895 318.267 179.245 317.917 178.412 317.75C177.579 317.583 176.545 317.5 175.312 317.5C173.712 317.5 172.445 317.617 171.512 317.85C170.579 318.05 169.879 318.433 169.412 319C168.945 319.567 168.629 320.383 168.462 321.45C168.295 322.517 168.212 323.933 168.212 325.7H182.662L181.712 326.55ZM200.992 340.4C199.158 340.4 197.625 340.2 196.392 339.8C195.192 339.4 194.242 338.717 193.542 337.75C192.842 336.75 192.342 335.4 192.042 333.7C191.742 332 191.592 329.867 191.592 327.3C191.592 324.7 191.725 322.55 191.992 320.85C192.292 319.117 192.792 317.767 193.492 316.8C194.192 315.833 195.142 315.15 196.342 314.75C197.542 314.317 199.058 314.1 200.892 314.1C202.258 314.1 203.475 314.217 204.542 314.45C205.608 314.65 206.525 315.017 207.292 315.55C208.092 316.083 208.725 316.817 209.192 317.75H209.442V302.85H213.542V340H209.892L209.692 336.35H209.392C208.925 337.517 208.242 338.4 207.342 339C206.475 339.567 205.492 339.933 204.392 340.1C203.292 340.3 202.158 340.4 200.992 340.4ZM202.592 336.8C204.292 336.8 205.642 336.567 206.642 336.1C207.642 335.633 208.342 334.9 208.742 333.9C209.075 332.967 209.275 331.95 209.342 330.85C209.408 329.75 209.442 328.45 209.442 326.95C209.442 325.717 209.408 324.6 209.342 323.6C209.275 322.567 209.092 321.667 208.792 320.9C208.358 319.767 207.642 318.967 206.642 318.5C205.642 318 204.258 317.75 202.492 317.75C200.992 317.75 199.792 317.85 198.892 318.05C197.992 318.25 197.308 318.683 196.842 319.35C196.375 319.983 196.058 320.933 195.892 322.2C195.725 323.433 195.642 325.117 195.642 327.25C195.642 329.383 195.725 331.083 195.892 332.35C196.058 333.617 196.375 334.567 196.842 335.2C197.308 335.833 197.992 336.267 198.892 336.5C199.825 336.7 201.058 336.8 202.592 336.8ZM245.452 340.4C244.285 340.4 243.152 340.3 242.052 340.1C240.952 339.933 239.968 339.567 239.102 339C238.235 338.4 237.552 337.517 237.052 336.35H236.752L236.602 340H232.902V302.85H237.002V317.75H237.252C237.718 316.817 238.335 316.083 239.102 315.55C239.902 315.017 240.835 314.65 241.902 314.45C242.968 314.217 244.185 314.1 245.552 314.1C247.385 314.1 248.902 314.317 250.102 314.75C251.302 315.15 252.252 315.833 252.952 316.8C253.652 317.767 254.135 319.1 254.402 320.8C254.702 322.5 254.852 324.65 254.852 327.25C254.852 329.85 254.702 332 254.402 333.7C254.102 335.4 253.602 336.733 252.902 337.7C252.202 338.667 251.235 339.367 250.002 339.8C248.802 340.2 247.285 340.4 245.452 340.4ZM243.852 336.8C245.385 336.8 246.602 336.7 247.502 336.5C248.435 336.267 249.135 335.833 249.602 335.2C250.068 334.567 250.385 333.617 250.552 332.35C250.718 331.083 250.802 329.383 250.802 327.25C250.802 325.117 250.718 323.433 250.552 322.2C250.385 320.933 250.068 319.983 249.602 319.35C249.135 318.683 248.435 318.25 247.502 318.05C246.602 317.85 245.385 317.75 243.852 317.75C242.218 317.75 240.918 317.967 239.952 318.4C238.985 318.8 238.302 319.45 237.902 320.35C237.502 321.217 237.252 322.217 237.152 323.35C237.052 324.45 237.002 325.75 237.002 327.25C237.002 328.717 237.035 330.017 237.102 331.15C237.202 332.25 237.452 333.233 237.852 334.1C238.285 335.033 238.985 335.717 239.952 336.15C240.918 336.583 242.218 336.8 243.852 336.8ZM271.694 350.3C270.727 350.3 269.71 350.267 268.644 350.2C267.61 350.167 266.61 350.117 265.644 350.05C264.71 350.017 263.877 349.95 263.144 349.85V346.6C264.244 346.633 265.244 346.667 266.144 346.7C267.077 346.767 267.927 346.8 268.694 346.8C269.494 346.833 270.21 346.85 270.844 346.85C272.777 346.85 274.294 346.7 275.394 346.4C276.527 346.1 277.36 345.6 277.894 344.9C278.427 344.233 278.76 343.333 278.894 342.2C279.06 341.067 279.144 339.683 279.144 338.05V336.55H278.844C278.577 337.217 278.127 337.833 277.494 338.4C276.86 338.967 275.994 339.417 274.894 339.75C273.794 340.083 272.36 340.25 270.594 340.25C268.727 340.25 267.21 340.067 266.044 339.7C264.91 339.3 264.044 338.7 263.444 337.9C262.844 337.067 262.427 336.033 262.194 334.8C261.994 333.567 261.894 332.1 261.894 330.4V314.5H265.994V328.95C265.994 330.683 266.06 332.067 266.194 333.1C266.327 334.133 266.61 334.917 267.044 335.45C267.51 335.95 268.16 336.283 268.994 336.45C269.827 336.617 270.91 336.7 272.244 336.7C273.91 336.7 275.21 336.5 276.144 336.1C277.077 335.667 277.744 335.05 278.144 334.25C278.577 333.45 278.844 332.5 278.944 331.4C279.077 330.267 279.144 329 279.144 327.6V314.5H283.194V336.85C283.194 339.283 283.06 341.35 282.794 343.05C282.56 344.783 282.044 346.167 281.244 347.2C280.477 348.267 279.327 349.05 277.794 349.55C276.26 350.05 274.227 350.3 271.694 350.3Z" fill="white"/>
<path d="M20.1 400V365.6H36.05C38.1833 365.6 39.9167 365.867 41.25 366.4C42.6167 366.933 43.6667 367.7 44.4 368.7C45.1333 369.667 45.6333 370.85 45.9 372.25C46.2 373.65 46.35 375.233 46.35 377C46.35 378.633 46.2167 380.15 45.95 381.55C45.7167 382.917 45.2333 384.117 44.5 385.15C43.7667 386.183 42.7 386.983 41.3 387.55C39.9333 388.117 38.1167 388.4 35.85 388.4H27.2V400H20.1ZM27.2 382.6H33.05C34.4833 382.6 35.6167 382.533 36.45 382.4C37.2833 382.233 37.9 381.95 38.3 381.55C38.7 381.15 38.95 380.583 39.05 379.85C39.1833 379.117 39.25 378.167 39.25 377C39.25 375.833 39.1833 374.883 39.05 374.15C38.95 373.417 38.7 372.85 38.3 372.45C37.9333 372.017 37.35 371.733 36.55 371.6C35.75 371.433 34.65 371.35 33.25 371.35H27.2V382.6ZM58.173 400.4C56.5397 400.4 55.1564 400.167 54.023 399.7C52.8897 399.2 52.023 398.4 51.423 397.3C50.8564 396.167 50.573 394.683 50.573 392.85C50.573 390.883 50.8064 389.333 51.273 388.2C51.7397 387.033 52.5564 386.2 53.723 385.7C54.8897 385.167 56.5064 384.9 58.573 384.9C58.9064 384.9 59.373 384.917 59.973 384.95C60.573 384.95 61.2564 384.967 62.023 385C62.7897 385 63.5564 385.017 64.323 385.05C65.0897 385.05 65.7897 385.067 66.423 385.1V384.1C66.423 383 66.3397 382.133 66.173 381.5C66.0064 380.867 65.6897 380.4 65.223 380.1C64.7564 379.8 64.073 379.617 63.173 379.55C62.273 379.483 61.1064 379.45 59.673 379.45C58.9397 379.45 58.0897 379.467 57.123 379.5C56.1564 379.533 55.223 379.583 54.323 379.65C53.423 379.717 52.7064 379.783 52.173 379.85V374.85C53.6064 374.617 55.1564 374.433 56.823 374.3C58.4897 374.167 60.173 374.1 61.873 374.1C63.873 374.1 65.5397 374.233 66.873 374.5C68.2397 374.733 69.323 375.117 70.123 375.65C70.9564 376.183 71.573 376.867 71.973 377.7C72.4064 378.5 72.6897 379.467 72.823 380.6C72.9564 381.7 73.023 382.967 73.023 384.4V400H66.873L66.673 396.9H66.273C65.7064 397.933 64.9564 398.7 64.023 399.2C63.123 399.7 62.1564 400.017 61.123 400.15C60.123 400.317 59.1397 400.4 58.173 400.4ZM61.323 395.3C62.0564 395.3 62.6897 395.25 63.223 395.15C63.7897 395.05 64.273 394.883 64.673 394.65C65.1064 394.383 65.4397 394.05 65.673 393.65C65.9064 393.217 66.0897 392.683 66.223 392.05C66.3564 391.417 66.423 390.65 66.423 389.75V389H60.373C59.4397 389 58.723 389.067 58.223 389.2C57.723 389.333 57.3897 389.633 57.223 390.1C57.0564 390.567 56.973 391.267 56.973 392.2C56.973 393.067 57.073 393.733 57.273 394.2C57.473 394.633 57.8897 394.933 58.523 395.1C59.1564 395.233 60.0897 395.3 61.323 395.3ZM80.1945 400V374.5H86.3945L86.5945 378.9H86.9945C87.4279 377.633 88.0112 376.65 88.7445 375.95C89.5112 375.25 90.4279 374.767 91.4945 374.5C92.5612 374.233 93.7779 374.1 95.1445 374.1V380.4C92.9779 380.4 91.2779 380.7 90.0445 381.3C88.8445 381.9 87.9945 382.883 87.4945 384.25C87.0279 385.617 86.7945 387.467 86.7945 389.8V400H80.1945ZM109.527 400.4C107.494 400.4 105.81 400.217 104.477 399.85C103.177 399.483 102.127 398.95 101.327 398.25C100.56 397.55 99.9936 396.683 99.627 395.65C99.2603 394.583 99.027 393.35 98.927 391.95C98.827 390.517 98.777 388.933 98.777 387.2C98.777 385.533 98.827 384.017 98.927 382.65C99.0603 381.25 99.327 380.017 99.727 378.95C100.127 377.883 100.71 377 101.477 376.3C102.244 375.567 103.277 375.017 104.577 374.65C105.877 374.283 107.51 374.1 109.477 374.1C110.744 374.1 112.044 374.167 113.377 374.3C114.71 374.433 115.844 374.617 116.777 374.85V379.85C116.077 379.717 115.194 379.617 114.127 379.55C113.06 379.483 112.077 379.45 111.177 379.45C109.877 379.45 108.844 379.55 108.077 379.75C107.344 379.95 106.777 380.333 106.377 380.9C106.01 381.433 105.76 382.217 105.627 383.25C105.494 384.283 105.427 385.617 105.427 387.25C105.427 388.917 105.494 390.267 105.627 391.3C105.76 392.333 106.027 393.133 106.427 393.7C106.827 394.233 107.41 394.6 108.177 394.8C108.977 394.967 110.01 395.05 111.277 395.05C112.077 395.05 112.977 395.017 113.977 394.95C115.01 394.883 116.01 394.8 116.977 394.7V399.65C116.044 399.883 114.894 400.067 113.527 400.2C112.16 400.333 110.827 400.4 109.527 400.4ZM122.773 400V362.85H129.373V377.5H129.773C130.206 376.7 130.773 376.05 131.473 375.55C132.173 375.05 133.006 374.7 133.973 374.5C134.939 374.267 136.039 374.15 137.273 374.15C139.006 374.15 140.406 374.367 141.473 374.8C142.539 375.2 143.356 375.817 143.923 376.65C144.489 377.483 144.856 378.517 145.023 379.75C145.223 380.983 145.323 382.417 145.323 384.05V400H138.723V386.5C138.723 384.967 138.673 383.75 138.573 382.85C138.473 381.95 138.273 381.283 137.973 380.85C137.673 380.417 137.223 380.15 136.623 380.05C136.023 379.917 135.223 379.85 134.223 379.85C133.156 379.85 132.289 379.983 131.623 380.25C130.989 380.483 130.506 380.883 130.173 381.45C129.873 381.983 129.656 382.7 129.523 383.6C129.423 384.467 129.373 385.533 129.373 386.8V400H122.773Z" fill="url(#paint0_linear_1972_300)"/>
<path d="M165.629 400V365.6H169.929V396.2H185.979V400H165.629ZM191.733 367.3V362.85H196.083V367.3H191.733ZM191.833 400V374.5H195.933V400H191.833ZM204.529 400V374.5H208.229L208.379 378.15H208.679C209.045 377.35 209.545 376.65 210.179 376.05C210.845 375.45 211.729 374.983 212.829 374.65C213.962 374.283 215.395 374.1 217.129 374.1C219.029 374.1 220.545 374.3 221.679 374.7C222.812 375.1 223.679 375.7 224.279 376.5C224.912 377.3 225.329 378.333 225.529 379.6C225.729 380.833 225.829 382.317 225.829 384.05V400H221.779V385.45C221.779 383.717 221.695 382.35 221.529 381.35C221.395 380.317 221.112 379.55 220.679 379.05C220.245 378.517 219.612 378.167 218.779 378C217.945 377.833 216.845 377.75 215.479 377.75C213.845 377.75 212.562 377.967 211.629 378.4C210.695 378.8 210.012 379.4 209.579 380.2C209.145 380.967 208.879 381.917 208.779 383.05C208.679 384.15 208.629 385.417 208.629 386.85V400H204.529ZM243.16 400.4C241.293 400.4 239.777 400.2 238.61 399.8C237.477 399.4 236.61 398.8 236.01 398C235.41 397.2 234.993 396.183 234.76 394.95C234.56 393.683 234.46 392.183 234.46 390.45V374.5H238.56V389.05C238.56 390.75 238.627 392.117 238.76 393.15C238.893 394.183 239.177 394.967 239.61 395.5C240.077 396 240.727 396.333 241.56 396.5C242.393 396.667 243.477 396.75 244.81 396.75C246.477 396.75 247.777 396.55 248.71 396.15C249.643 395.717 250.31 395.117 250.71 394.35C251.143 393.55 251.41 392.6 251.51 391.5C251.643 390.367 251.71 389.083 251.71 387.65V374.5H255.76V400H252.11L251.96 396.35H251.61C251.277 397.15 250.777 397.85 250.11 398.45C249.477 399.05 248.593 399.533 247.46 399.9C246.327 400.233 244.893 400.4 243.16 400.4ZM261.592 400L271.242 387.05L261.942 374.5H266.592L273.642 384H273.942L281.042 374.5H285.492L276.242 387L285.892 400H281.192L273.792 390.1H273.492L266.092 400H261.592Z" fill="white"/>
<defs>
<filter id="filter0_i_1972_300" x="16" y="16" width="272" height="273" filterUnits="userSpaceOnUse" color-interpolation-filters="sRGB">
<feFlood flood-opacity="0" result="BackgroundImageFix"/>
<feBlend mode="normal" in="SourceGraphic" in2="BackgroundImageFix" result="shape"/>
<feColorMatrix in="SourceAlpha" type="matrix" values="0 0 0 0 0 0 0 0 0 0 0 0 0 0 0 0 0 0 127 0" result="hardAlpha"/>
<feOffset dy="1"/>
<feGaussianBlur stdDeviation="2.5"/>
<feComposite in2="hardAlpha" operator="arithmetic" k2="-1" k3="1"/>
<feColorMatrix type="matrix" values="0 0 0 0 0 0 0 0 0 0 0 0 0 0 0 0 0 0 0.25 0"/>
<feBlend mode="normal" in2="shape" result="effect1_innerShadow_1972_300"/>
</filter>
<linearGradient id="paint0_linear_1972_300" x1="76.451" y1="358" x2="181.007" y2="457.103" gradientUnits="userSpaceOnUse">
<stop stop-color="#1D9FFB"/>
<stop offset="0.350962" stop-color="#3EDBB2"/>
</linearGradient>
</defs>
</svg>
