<svg width="407" height="154" viewBox="0 0 407 154" fill="none" xmlns="http://www.w3.org/2000/svg">
<rect width="407" height="154" rx="77" fill="black"/>
<g filter="url(#filter0_i_1972_353)">
<path d="M88.8893 91.748L67.1934 94.5333L29.5977 116.141C32.7042 120.366 36.3603 124.177 40.5243 127.427C45.4008 130.886 51.3242 133.408 58.3641 133.671C78.3528 134.427 89.5 119.138 90.0081 102.019C90.113 98.4842 89.6866 95.0809 88.8893 91.748Z" fill="#00FF80"/>
<path d="M33.5698 94.5312C29.9198 98.4795 26.2553 103.171 24.4023 107.705C25.9041 110.661 27.6443 113.481 29.5986 116.139L67.1943 94.5312H33.5698ZM31.0565 118.032C31.2771 118.308 31.5001 118.581 31.7256 118.853C31.5003 118.581 31.2769 118.308 31.0565 118.032ZM33.3387 120.727C33.4997 120.905 33.6669 121.077 33.8301 121.253C33.667 121.077 33.4996 120.905 33.3387 120.727ZM35.3648 122.847C35.532 123.014 35.6967 123.184 35.866 123.349C35.6968 123.184 35.5319 123.014 35.3648 122.847ZM37.8447 125.186C38.0035 125.327 38.1644 125.465 38.3248 125.604C38.1645 125.465 38.0034 125.327 37.8447 125.186Z" fill="#0080FF"/>
<path d="M73.6582 61.4473L43.8065 84.9093C43.8065 84.9093 38.7019 88.9808 33.569 94.5331H67.1935L67.4269 94.3989L85.5517 82.1748C82.4772 75.3297 78.1513 68.582 73.6582 61.4473ZM33.569 94.5331C32.2993 95.9065 31.0366 97.3665 29.8404 98.8836C31.0355 97.3702 32.3008 95.9049 33.569 94.5331ZM29.5233 99.2805C29.2744 99.6017 29.0372 99.9267 28.7963 100.252C29.0372 99.9273 29.2745 99.6012 29.5233 99.2805ZM28.1224 101.176C27.9198 101.462 27.7255 101.749 27.531 102.038C27.7254 101.75 27.9199 101.462 28.1224 101.176ZM26.5628 103.522C26.5251 103.584 26.4895 103.645 26.4522 103.707C26.4895 103.645 26.5251 103.584 26.5628 103.522Z" fill="#00EAFF"/>
<path d="M27.5438 45.2578C21.5723 54.5484 18.0928 65.4956 17.6609 76.9014C17.3957 84.2255 18.3997 91.4156 20.5131 98.1673L43.8072 84.9082L69.6336 64.6098L44.1056 52.5163L27.5438 45.2578ZM79.7109 71.2077C79.8336 71.4135 79.9605 71.6205 80.082 71.826C79.9606 71.6206 79.8335 71.4133 79.7109 71.2077ZM81.8404 74.8854C82.0058 75.1808 82.1645 75.4758 82.3265 75.771C82.1646 75.476 82.0057 75.1806 81.8404 74.8854ZM83.5704 78.1058C83.7303 78.4151 83.8913 78.7244 84.0468 79.0337C83.8914 78.7245 83.7301 78.4149 83.5704 78.1058Z" fill="#00A9FF"/>
<path d="M73.4597 18.9593C59.5115 19.1729 46.0665 24.895 35.7649 35.0767C34.4465 36.3797 33.1967 37.7461 32.0098 39.1639L44.1062 52.5166L69.6342 64.61L73.6595 61.4464C72.0547 58.8982 70.4329 56.3058 68.8332 53.6347C61.8217 41.9272 65.5705 23.2677 78.8203 19.152C77.9667 19.0774 77.1115 19.0235 76.2553 18.9904C75.3217 18.9554 74.3896 18.9451 73.4597 18.9593ZM77.5831 67.7089C77.7776 68.0232 77.972 68.3375 78.1643 68.6509C77.9729 68.339 77.7766 68.0217 77.5831 67.7089Z" fill="#00FF95"/>
</g>
<path d="M109 64V29.6H124.05C126.25 29.6 128 29.8833 129.3 30.45C130.633 30.9833 131.617 31.7333 132.25 32.7C132.917 33.6667 133.367 34.8167 133.6 36.15C133.833 37.45 133.95 38.8833 133.95 40.45C133.95 41.95 133.833 43.3667 133.6 44.7C133.4 46 132.967 47.15 132.3 48.15C131.633 49.15 130.633 49.9333 129.3 50.5C127.967 51.0667 126.183 51.35 123.95 51.35H113.3V64H109ZM113.3 47.6H122.55C124.183 47.6 125.467 47.4667 126.4 47.2C127.367 46.9333 128.083 46.5167 128.55 45.95C129.017 45.35 129.317 44.6 129.45 43.7C129.583 42.8 129.65 41.7167 129.65 40.45C129.65 39.1833 129.583 38.1 129.45 37.2C129.35 36.3 129.067 35.5667 128.6 35C128.167 34.4333 127.467 34.0167 126.5 33.75C125.567 33.45 124.283 33.3 122.65 33.3H113.3V47.6ZM150.517 64.4C148.417 64.4 146.667 64.2667 145.267 64C143.901 63.7667 142.817 63.3667 142.017 62.8C141.217 62.2333 140.617 61.45 140.217 60.45C139.851 59.45 139.617 58.2 139.517 56.7C139.417 55.1667 139.367 53.35 139.367 51.25C139.367 49.15 139.417 47.35 139.517 45.85C139.617 44.3167 139.851 43.05 140.217 42.05C140.617 41.05 141.217 40.2667 142.017 39.7C142.817 39.1333 143.901 38.7333 145.267 38.5C146.667 38.2333 148.417 38.1 150.517 38.1C152.651 38.1 154.401 38.2333 155.767 38.5C157.134 38.7333 158.217 39.1333 159.017 39.7C159.851 40.2667 160.451 41.05 160.817 42.05C161.217 43.05 161.467 44.3167 161.567 45.85C161.667 47.35 161.717 49.15 161.717 51.25C161.717 53.35 161.667 55.1667 161.567 56.7C161.467 58.2 161.217 59.45 160.817 60.45C160.451 61.45 159.851 62.2333 159.017 62.8C158.217 63.3667 157.134 63.7667 155.767 64C154.401 64.2667 152.651 64.4 150.517 64.4ZM150.517 60.95C152.317 60.95 153.701 60.8333 154.667 60.6C155.634 60.3667 156.317 59.9167 156.717 59.25C157.151 58.5833 157.401 57.6167 157.467 56.35C157.567 55.05 157.617 53.35 157.617 51.25C157.617 49.15 157.567 47.4667 157.467 46.2C157.401 44.9 157.151 43.9167 156.717 43.25C156.317 42.5833 155.634 42.1333 154.667 41.9C153.701 41.6667 152.317 41.55 150.517 41.55C148.751 41.55 147.367 41.6667 146.367 41.9C145.401 42.1333 144.717 42.5833 144.317 43.25C143.917 43.9167 143.667 44.9 143.567 46.2C143.467 47.4667 143.417 49.15 143.417 51.25C143.417 53.35 143.467 55.05 143.567 56.35C143.667 57.6167 143.917 58.5833 144.317 59.25C144.717 59.9167 145.401 60.3667 146.367 60.6C147.367 60.8333 148.751 60.95 150.517 60.95ZM173.686 64L165.536 38.5H169.786L175.986 59.05H176.336L182.536 38.5H186.386L192.586 59.05H192.986L199.136 38.5H203.236L195.086 64H190.386L184.536 45.2H184.186L178.386 64H173.686ZM218.567 64.4C216.501 64.4 214.767 64.2667 213.367 64C212.001 63.7333 210.901 63.3 210.067 62.7C209.234 62.0667 208.601 61.25 208.167 60.25C207.734 59.2167 207.451 57.9667 207.317 56.5C207.184 55.0333 207.117 53.3 207.117 51.3C207.117 48.9333 207.217 46.9167 207.417 45.25C207.617 43.55 208.067 42.1833 208.767 41.15C209.501 40.0833 210.634 39.3167 212.167 38.85C213.701 38.35 215.767 38.1 218.367 38.1C220.334 38.1 221.934 38.25 223.167 38.55C224.434 38.85 225.434 39.3167 226.167 39.95C226.901 40.5833 227.434 41.4333 227.767 42.5C228.134 43.5333 228.367 44.7833 228.467 46.25C228.567 47.6833 228.617 49.35 228.617 51.25V52.6H211.167C211.167 54.3333 211.251 55.75 211.417 56.85C211.584 57.95 211.917 58.8 212.417 59.4C212.951 60 213.767 60.4167 214.867 60.65C216.001 60.8833 217.534 61 219.467 61C220.267 61 221.151 60.9833 222.117 60.95C223.084 60.8833 224.051 60.8 225.017 60.7C225.984 60.6 226.851 60.5 227.617 60.4V63.7C226.917 63.8333 226.051 63.95 225.017 64.05C224.017 64.15 222.951 64.2333 221.817 64.3C220.717 64.3667 219.634 64.4 218.567 64.4ZM224.667 50.55V49.2C224.667 47.4667 224.567 46.1 224.367 45.1C224.167 44.0667 223.817 43.3 223.317 42.8C222.851 42.2667 222.201 41.9167 221.367 41.75C220.534 41.5833 219.501 41.5 218.267 41.5C216.667 41.5 215.401 41.6167 214.467 41.85C213.534 42.05 212.834 42.4333 212.367 43C211.901 43.5667 211.584 44.3833 211.417 45.45C211.251 46.5167 211.167 47.9333 211.167 49.7H225.617L224.667 50.55ZM235.597 64V38.5H239.247L239.447 43.4H239.747C240.18 41.9667 240.797 40.8667 241.597 40.1C242.397 39.3333 243.364 38.8167 244.497 38.55C245.63 38.25 246.88 38.1 248.247 38.1V42.1C245.947 42.1 244.18 42.4667 242.947 43.2C241.714 43.9333 240.864 45.0667 240.397 46.6C239.93 48.1333 239.697 50.0667 239.697 52.4V64H235.597ZM263.612 64.4C261.545 64.4 259.812 64.2667 258.412 64C257.045 63.7333 255.945 63.3 255.112 62.7C254.279 62.0667 253.645 61.25 253.212 60.25C252.779 59.2167 252.495 57.9667 252.362 56.5C252.229 55.0333 252.162 53.3 252.162 51.3C252.162 48.9333 252.262 46.9167 252.462 45.25C252.662 43.55 253.112 42.1833 253.812 41.15C254.545 40.0833 255.679 39.3167 257.212 38.85C258.745 38.35 260.812 38.1 263.412 38.1C265.379 38.1 266.979 38.25 268.212 38.55C269.479 38.85 270.479 39.3167 271.212 39.95C271.945 40.5833 272.479 41.4333 272.812 42.5C273.179 43.5333 273.412 44.7833 273.512 46.25C273.612 47.6833 273.662 49.35 273.662 51.25V52.6H256.212C256.212 54.3333 256.295 55.75 256.462 56.85C256.629 57.95 256.962 58.8 257.462 59.4C257.995 60 258.812 60.4167 259.912 60.65C261.045 60.8833 262.579 61 264.512 61C265.312 61 266.195 60.9833 267.162 60.95C268.129 60.8833 269.095 60.8 270.062 60.7C271.029 60.6 271.895 60.5 272.662 60.4V63.7C271.962 63.8333 271.095 63.95 270.062 64.05C269.062 64.15 267.995 64.2333 266.862 64.3C265.762 64.3667 264.679 64.4 263.612 64.4ZM269.712 50.55V49.2C269.712 47.4667 269.612 46.1 269.412 45.1C269.212 44.0667 268.862 43.3 268.362 42.8C267.895 42.2667 267.245 41.9167 266.412 41.75C265.579 41.5833 264.545 41.5 263.312 41.5C261.712 41.5 260.445 41.6167 259.512 41.85C258.579 42.05 257.879 42.4333 257.412 43C256.945 43.5667 256.629 44.3833 256.462 45.45C256.295 46.5167 256.212 47.9333 256.212 49.7H270.662L269.712 50.55ZM288.992 64.4C287.158 64.4 285.625 64.2 284.392 63.8C283.192 63.4 282.242 62.7167 281.542 61.75C280.842 60.75 280.342 59.4 280.042 57.7C279.742 56 279.592 53.8667 279.592 51.3C279.592 48.7 279.725 46.55 279.992 44.85C280.292 43.1167 280.792 41.7667 281.492 40.8C282.192 39.8333 283.142 39.15 284.342 38.75C285.542 38.3167 287.058 38.1 288.892 38.1C290.258 38.1 291.475 38.2167 292.542 38.45C293.608 38.65 294.525 39.0167 295.292 39.55C296.092 40.0833 296.725 40.8167 297.192 41.75H297.442V26.85H301.542V64H297.892L297.692 60.35H297.392C296.925 61.5167 296.242 62.4 295.342 63C294.475 63.5667 293.492 63.9333 292.392 64.1C291.292 64.3 290.158 64.4 288.992 64.4ZM290.592 60.8C292.292 60.8 293.642 60.5667 294.642 60.1C295.642 59.6333 296.342 58.9 296.742 57.9C297.075 56.9667 297.275 55.95 297.342 54.85C297.408 53.75 297.442 52.45 297.442 50.95C297.442 49.7167 297.408 48.6 297.342 47.6C297.275 46.5667 297.092 45.6667 296.792 44.9C296.358 43.7667 295.642 42.9667 294.642 42.5C293.642 42 292.258 41.75 290.492 41.75C288.992 41.75 287.792 41.85 286.892 42.05C285.992 42.25 285.308 42.6833 284.842 43.35C284.375 43.9833 284.058 44.9333 283.892 46.2C283.725 47.4333 283.642 49.1167 283.642 51.25C283.642 53.3833 283.725 55.0833 283.892 56.35C284.058 57.6167 284.375 58.5667 284.842 59.2C285.308 59.8333 285.992 60.2667 286.892 60.5C287.825 60.7 289.058 60.8 290.592 60.8ZM333.452 64.4C332.285 64.4 331.152 64.3 330.052 64.1C328.952 63.9333 327.968 63.5667 327.102 63C326.235 62.4 325.552 61.5167 325.052 60.35H324.752L324.602 64H320.902V26.85H325.002V41.75H325.252C325.718 40.8167 326.335 40.0833 327.102 39.55C327.902 39.0167 328.835 38.65 329.902 38.45C330.968 38.2167 332.185 38.1 333.552 38.1C335.385 38.1 336.902 38.3167 338.102 38.75C339.302 39.15 340.252 39.8333 340.952 40.8C341.652 41.7667 342.135 43.1 342.402 44.8C342.702 46.5 342.852 48.65 342.852 51.25C342.852 53.85 342.702 56 342.402 57.7C342.102 59.4 341.602 60.7333 340.902 61.7C340.202 62.6667 339.235 63.3667 338.002 63.8C336.802 64.2 335.285 64.4 333.452 64.4ZM331.852 60.8C333.385 60.8 334.602 60.7 335.502 60.5C336.435 60.2667 337.135 59.8333 337.602 59.2C338.068 58.5667 338.385 57.6167 338.552 56.35C338.718 55.0833 338.802 53.3833 338.802 51.25C338.802 49.1167 338.718 47.4333 338.552 46.2C338.385 44.9333 338.068 43.9833 337.602 43.35C337.135 42.6833 336.435 42.25 335.502 42.05C334.602 41.85 333.385 41.75 331.852 41.75C330.218 41.75 328.918 41.9667 327.952 42.4C326.985 42.8 326.302 43.45 325.902 44.35C325.502 45.2167 325.252 46.2167 325.152 47.35C325.052 48.45 325.002 49.75 325.002 51.25C325.002 52.7167 325.035 54.0167 325.102 55.15C325.202 56.25 325.452 57.2333 325.852 58.1C326.285 59.0333 326.985 59.7167 327.952 60.15C328.918 60.5833 330.218 60.8 331.852 60.8ZM359.694 74.3C358.727 74.3 357.71 74.2667 356.644 74.2C355.61 74.1667 354.61 74.1167 353.644 74.05C352.71 74.0167 351.877 73.95 351.144 73.85V70.6C352.244 70.6333 353.244 70.6667 354.144 70.7C355.077 70.7667 355.927 70.8 356.694 70.8C357.494 70.8333 358.21 70.85 358.844 70.85C360.777 70.85 362.294 70.7 363.394 70.4C364.527 70.1 365.36 69.6 365.894 68.9C366.427 68.2333 366.76 67.3333 366.894 66.2C367.06 65.0667 367.144 63.6833 367.144 62.05V60.55H366.844C366.577 61.2167 366.127 61.8333 365.494 62.4C364.86 62.9667 363.994 63.4167 362.894 63.75C361.794 64.0833 360.36 64.25 358.594 64.25C356.727 64.25 355.21 64.0667 354.044 63.7C352.91 63.3 352.044 62.7 351.444 61.9C350.844 61.0667 350.427 60.0333 350.194 58.8C349.994 57.5667 349.894 56.1 349.894 54.4V38.5H353.994V52.95C353.994 54.6833 354.06 56.0667 354.194 57.1C354.327 58.1333 354.61 58.9167 355.044 59.45C355.51 59.95 356.16 60.2833 356.994 60.45C357.827 60.6167 358.91 60.7 360.244 60.7C361.91 60.7 363.21 60.5 364.144 60.1C365.077 59.6667 365.744 59.05 366.144 58.25C366.577 57.45 366.844 56.5 366.944 55.4C367.077 54.2667 367.144 53 367.144 51.6V38.5H371.194V60.85C371.194 63.2833 371.06 65.35 370.794 67.05C370.56 68.7833 370.044 70.1667 369.244 71.2C368.477 72.2667 367.327 73.05 365.794 73.55C364.26 74.05 362.227 74.3 359.694 74.3Z" fill="white"/>
<path d="M108.1 124V89.6H124.05C126.183 89.6 127.917 89.8667 129.25 90.4C130.617 90.9333 131.667 91.7 132.4 92.7C133.133 93.6667 133.633 94.85 133.9 96.25C134.2 97.65 134.35 99.2333 134.35 101C134.35 102.633 134.217 104.15 133.95 105.55C133.717 106.917 133.233 108.117 132.5 109.15C131.767 110.183 130.7 110.983 129.3 111.55C127.933 112.117 126.117 112.4 123.85 112.4H115.2V124H108.1ZM115.2 106.6H121.05C122.483 106.6 123.617 106.533 124.45 106.4C125.283 106.233 125.9 105.95 126.3 105.55C126.7 105.15 126.95 104.583 127.05 103.85C127.183 103.117 127.25 102.167 127.25 101C127.25 99.8333 127.183 98.8833 127.05 98.15C126.95 97.4167 126.7 96.85 126.3 96.45C125.933 96.0167 125.35 95.7333 124.55 95.6C123.75 95.4333 122.65 95.35 121.25 95.35H115.2V106.6ZM146.173 124.4C144.54 124.4 143.156 124.167 142.023 123.7C140.89 123.2 140.023 122.4 139.423 121.3C138.856 120.167 138.573 118.683 138.573 116.85C138.573 114.883 138.806 113.333 139.273 112.2C139.74 111.033 140.556 110.2 141.723 109.7C142.89 109.167 144.506 108.9 146.573 108.9C146.906 108.9 147.373 108.917 147.973 108.95C148.573 108.95 149.256 108.967 150.023 109C150.79 109 151.556 109.017 152.323 109.05C153.09 109.05 153.79 109.067 154.423 109.1V108.1C154.423 107 154.34 106.133 154.173 105.5C154.006 104.867 153.69 104.4 153.223 104.1C152.756 103.8 152.073 103.617 151.173 103.55C150.273 103.483 149.106 103.45 147.673 103.45C146.94 103.45 146.09 103.467 145.123 103.5C144.156 103.533 143.223 103.583 142.323 103.65C141.423 103.717 140.706 103.783 140.173 103.85V98.85C141.606 98.6167 143.156 98.4333 144.823 98.3C146.49 98.1667 148.173 98.1 149.873 98.1C151.873 98.1 153.54 98.2333 154.873 98.5C156.24 98.7333 157.323 99.1167 158.123 99.65C158.956 100.183 159.573 100.867 159.973 101.7C160.406 102.5 160.69 103.467 160.823 104.6C160.956 105.7 161.023 106.967 161.023 108.4V124H154.873L154.673 120.9H154.273C153.706 121.933 152.956 122.7 152.023 123.2C151.123 123.7 150.156 124.017 149.123 124.15C148.123 124.317 147.14 124.4 146.173 124.4ZM149.323 119.3C150.056 119.3 150.69 119.25 151.223 119.15C151.79 119.05 152.273 118.883 152.673 118.65C153.106 118.383 153.44 118.05 153.673 117.65C153.906 117.217 154.09 116.683 154.223 116.05C154.356 115.417 154.423 114.65 154.423 113.75V113H148.373C147.44 113 146.723 113.067 146.223 113.2C145.723 113.333 145.39 113.633 145.223 114.1C145.056 114.567 144.973 115.267 144.973 116.2C144.973 117.067 145.073 117.733 145.273 118.2C145.473 118.633 145.89 118.933 146.523 119.1C147.156 119.233 148.09 119.3 149.323 119.3ZM168.195 124V98.5H174.395L174.595 102.9H174.995C175.428 101.633 176.011 100.65 176.745 99.95C177.511 99.25 178.428 98.7667 179.495 98.5C180.561 98.2333 181.778 98.1 183.145 98.1V104.4C180.978 104.4 179.278 104.7 178.045 105.3C176.845 105.9 175.995 106.883 175.495 108.25C175.028 109.617 174.795 111.467 174.795 113.8V124H168.195ZM197.527 124.4C195.494 124.4 193.81 124.217 192.477 123.85C191.177 123.483 190.127 122.95 189.327 122.25C188.56 121.55 187.994 120.683 187.627 119.65C187.26 118.583 187.027 117.35 186.927 115.95C186.827 114.517 186.777 112.933 186.777 111.2C186.777 109.533 186.827 108.017 186.927 106.65C187.06 105.25 187.327 104.017 187.727 102.95C188.127 101.883 188.71 101 189.477 100.3C190.244 99.5667 191.277 99.0167 192.577 98.65C193.877 98.2833 195.51 98.1 197.477 98.1C198.744 98.1 200.044 98.1667 201.377 98.3C202.71 98.4333 203.844 98.6167 204.777 98.85V103.85C204.077 103.717 203.194 103.617 202.127 103.55C201.06 103.483 200.077 103.45 199.177 103.45C197.877 103.45 196.844 103.55 196.077 103.75C195.344 103.95 194.777 104.333 194.377 104.9C194.01 105.433 193.76 106.217 193.627 107.25C193.494 108.283 193.427 109.617 193.427 111.25C193.427 112.917 193.494 114.267 193.627 115.3C193.76 116.333 194.027 117.133 194.427 117.7C194.827 118.233 195.41 118.6 196.177 118.8C196.977 118.967 198.01 119.05 199.277 119.05C200.077 119.05 200.977 119.017 201.977 118.95C203.01 118.883 204.01 118.8 204.977 118.7V123.65C204.044 123.883 202.894 124.067 201.527 124.2C200.16 124.333 198.827 124.4 197.527 124.4ZM210.773 124V86.85H217.373V101.5H217.773C218.206 100.7 218.773 100.05 219.473 99.55C220.173 99.05 221.006 98.7 221.973 98.5C222.939 98.2667 224.039 98.15 225.273 98.15C227.006 98.15 228.406 98.3667 229.473 98.8C230.539 99.2 231.356 99.8167 231.923 100.65C232.489 101.483 232.856 102.517 233.023 103.75C233.223 104.983 233.323 106.417 233.323 108.05V124H226.723V110.5C226.723 108.967 226.673 107.75 226.573 106.85C226.473 105.95 226.273 105.283 225.973 104.85C225.673 104.417 225.223 104.15 224.623 104.05C224.023 103.917 223.223 103.85 222.223 103.85C221.156 103.85 220.289 103.983 219.623 104.25C218.989 104.483 218.506 104.883 218.173 105.45C217.873 105.983 217.656 106.7 217.523 107.6C217.423 108.467 217.373 109.533 217.373 110.8V124H210.773Z" fill="url(#paint0_linear_1972_353)"/>
<path d="M253.629 124V89.6H257.929V120.2H273.979V124H253.629ZM279.733 91.3V86.85H284.083V91.3H279.733ZM279.833 124V98.5H283.933V124H279.833ZM292.529 124V98.5H296.229L296.379 102.15H296.679C297.045 101.35 297.545 100.65 298.179 100.05C298.845 99.45 299.729 98.9833 300.829 98.65C301.962 98.2833 303.395 98.1 305.129 98.1C307.029 98.1 308.545 98.3 309.679 98.7C310.812 99.1 311.679 99.7 312.279 100.5C312.912 101.3 313.329 102.333 313.529 103.6C313.729 104.833 313.829 106.317 313.829 108.05V124H309.779V109.45C309.779 107.717 309.695 106.35 309.529 105.35C309.395 104.317 309.112 103.55 308.679 103.05C308.245 102.517 307.612 102.167 306.779 102C305.945 101.833 304.845 101.75 303.479 101.75C301.845 101.75 300.562 101.967 299.629 102.4C298.695 102.8 298.012 103.4 297.579 104.2C297.145 104.967 296.879 105.917 296.779 107.05C296.679 108.15 296.629 109.417 296.629 110.85V124H292.529ZM331.16 124.4C329.293 124.4 327.777 124.2 326.61 123.8C325.477 123.4 324.61 122.8 324.01 122C323.41 121.2 322.993 120.183 322.76 118.95C322.56 117.683 322.46 116.183 322.46 114.45V98.5H326.56V113.05C326.56 114.75 326.627 116.117 326.76 117.15C326.893 118.183 327.177 118.967 327.61 119.5C328.077 120 328.727 120.333 329.56 120.5C330.393 120.667 331.477 120.75 332.81 120.75C334.477 120.75 335.777 120.55 336.71 120.15C337.643 119.717 338.31 119.117 338.71 118.35C339.143 117.55 339.41 116.6 339.51 115.5C339.643 114.367 339.71 113.083 339.71 111.65V98.5H343.76V124H340.11L339.96 120.35H339.61C339.277 121.15 338.777 121.85 338.11 122.45C337.477 123.05 336.593 123.533 335.46 123.9C334.327 124.233 332.893 124.4 331.16 124.4ZM349.592 124L359.242 111.05L349.942 98.5H354.592L361.642 108H361.942L369.042 98.5H373.492L364.242 111L373.892 124H369.192L361.792 114.1H361.492L354.092 124H349.592Z" fill="white"/>
<defs>
<filter id="filter0_i_1972_353" x="16" y="16" width="78" height="123" filterUnits="userSpaceOnUse" color-interpolation-filters="sRGB">
<feFlood flood-opacity="0" result="BackgroundImageFix"/>
<feBlend mode="normal" in="SourceGraphic" in2="BackgroundImageFix" result="shape"/>
<feColorMatrix in="SourceAlpha" type="matrix" values="0 0 0 0 0 0 0 0 0 0 0 0 0 0 0 0 0 0 127 0" result="hardAlpha"/>
<feOffset dy="1"/>
<feGaussianBlur stdDeviation="2.5"/>
<feComposite in2="hardAlpha" operator="arithmetic" k2="-1" k3="1"/>
<feColorMatrix type="matrix" values="0 0 0 0 0 0 0 0 0 0 0 0 0 0 0 0 0 0 0.25 0"/>
<feBlend mode="normal" in2="shape" result="effect1_innerShadow_1972_353"/>
</filter>
<linearGradient id="paint0_linear_1972_353" x1="164.451" y1="82" x2="269.007" y2="181.103" gradientUnits="userSpaceOnUse">
<stop stop-color="#1D9FFB"/>
<stop offset="0.350962" stop-color="#3EDBB2"/>
</linearGradient>
</defs>
</svg>
