<svg width="674" height="154" viewBox="0 0 674 154" fill="none" xmlns="http://www.w3.org/2000/svg">
<rect width="674" height="154" rx="77" fill="white"/>
<g filter="url(#filter0_i_1972_343)">
<path d="M88.8893 91.748L67.1934 94.5333L29.5977 116.141C32.7042 120.366 36.3603 124.177 40.5243 127.427C45.4008 130.886 51.3242 133.408 58.3641 133.671C78.3528 134.427 89.5 119.138 90.0081 102.019C90.113 98.4842 89.6866 95.0809 88.8893 91.748Z" fill="#00FF80"/>
<path d="M33.5698 94.5312C29.9198 98.4795 26.2553 103.171 24.4023 107.705C25.9041 110.661 27.6443 113.481 29.5986 116.139L67.1943 94.5312H33.5698ZM31.0565 118.032C31.2771 118.308 31.5001 118.581 31.7256 118.853C31.5003 118.581 31.2769 118.308 31.0565 118.032ZM33.3387 120.727C33.4997 120.905 33.6669 121.077 33.8301 121.253C33.667 121.077 33.4996 120.905 33.3387 120.727ZM35.3648 122.847C35.532 123.014 35.6967 123.184 35.866 123.349C35.6968 123.184 35.5319 123.014 35.3648 122.847ZM37.8447 125.186C38.0035 125.327 38.1644 125.465 38.3248 125.604C38.1645 125.465 38.0034 125.327 37.8447 125.186Z" fill="#0080FF"/>
<path d="M73.6582 61.4473L43.8065 84.9093C43.8065 84.9093 38.7019 88.9808 33.569 94.5331H67.1935L67.4269 94.3989L85.5517 82.1748C82.4772 75.3297 78.1513 68.582 73.6582 61.4473ZM33.569 94.5331C32.2993 95.9065 31.0366 97.3665 29.8404 98.8836C31.0355 97.3702 32.3008 95.9049 33.569 94.5331ZM29.5233 99.2805C29.2744 99.6017 29.0372 99.9267 28.7963 100.252C29.0372 99.9273 29.2745 99.6012 29.5233 99.2805ZM28.1224 101.176C27.9198 101.462 27.7255 101.749 27.531 102.038C27.7254 101.75 27.9199 101.462 28.1224 101.176ZM26.5628 103.522C26.5251 103.584 26.4895 103.645 26.4522 103.707C26.4895 103.645 26.5251 103.584 26.5628 103.522Z" fill="#00EAFF"/>
<path d="M27.5438 45.2578C21.5723 54.5484 18.0928 65.4956 17.6609 76.9014C17.3957 84.2255 18.3997 91.4156 20.5131 98.1673L43.8072 84.9082L69.6336 64.6098L44.1056 52.5163L27.5438 45.2578ZM79.7109 71.2077C79.8336 71.4135 79.9605 71.6205 80.082 71.826C79.9606 71.6206 79.8335 71.4133 79.7109 71.2077ZM81.8404 74.8854C82.0058 75.1808 82.1645 75.4758 82.3265 75.771C82.1646 75.476 82.0057 75.1806 81.8404 74.8854ZM83.5704 78.1058C83.7303 78.4151 83.8913 78.7244 84.0468 79.0337C83.8914 78.7245 83.7301 78.4149 83.5704 78.1058Z" fill="#00A9FF"/>
<path d="M73.4597 18.9593C59.5115 19.1729 46.0665 24.895 35.7649 35.0767C34.4465 36.3797 33.1967 37.7461 32.0098 39.1639L44.1062 52.5166L69.6342 64.61L73.6595 61.4464C72.0547 58.8982 70.4329 56.3058 68.8332 53.6347C61.8217 41.9272 65.5705 23.2677 78.8203 19.152C77.9667 19.0774 77.1115 19.0235 76.2553 18.9904C75.3217 18.9554 74.3896 18.9451 73.4597 18.9593ZM77.5831 67.7089C77.7776 68.0232 77.972 68.3375 78.1643 68.6509C77.9729 68.339 77.7766 68.0217 77.5831 67.7089Z" fill="#00FF95"/>
</g>
<g filter="url(#filter1_i_1972_343)">
<path d="M109 94V59.6H124.05C126.25 59.6 128 59.8833 129.3 60.45C130.633 60.9833 131.617 61.7333 132.25 62.7C132.917 63.6667 133.367 64.8167 133.6 66.15C133.833 67.45 133.95 68.8833 133.95 70.45C133.95 71.95 133.833 73.3667 133.6 74.7C133.4 76 132.967 77.15 132.3 78.15C131.633 79.15 130.633 79.9333 129.3 80.5C127.967 81.0667 126.183 81.35 123.95 81.35H113.3V94H109ZM113.3 77.6H122.55C124.183 77.6 125.467 77.4667 126.4 77.2C127.367 76.9333 128.083 76.5167 128.55 75.95C129.017 75.35 129.317 74.6 129.45 73.7C129.583 72.8 129.65 71.7167 129.65 70.45C129.65 69.1833 129.583 68.1 129.45 67.2C129.35 66.3 129.067 65.5667 128.6 65C128.167 64.4333 127.467 64.0167 126.5 63.75C125.567 63.45 124.283 63.3 122.65 63.3H113.3V77.6ZM150.517 94.4C148.417 94.4 146.667 94.2667 145.267 94C143.901 93.7667 142.817 93.3667 142.017 92.8C141.217 92.2333 140.617 91.45 140.217 90.45C139.851 89.45 139.617 88.2 139.517 86.7C139.417 85.1667 139.367 83.35 139.367 81.25C139.367 79.15 139.417 77.35 139.517 75.85C139.617 74.3167 139.851 73.05 140.217 72.05C140.617 71.05 141.217 70.2667 142.017 69.7C142.817 69.1333 143.901 68.7333 145.267 68.5C146.667 68.2333 148.417 68.1 150.517 68.1C152.651 68.1 154.401 68.2333 155.767 68.5C157.134 68.7333 158.217 69.1333 159.017 69.7C159.851 70.2667 160.451 71.05 160.817 72.05C161.217 73.05 161.467 74.3167 161.567 75.85C161.667 77.35 161.717 79.15 161.717 81.25C161.717 83.35 161.667 85.1667 161.567 86.7C161.467 88.2 161.217 89.45 160.817 90.45C160.451 91.45 159.851 92.2333 159.017 92.8C158.217 93.3667 157.134 93.7667 155.767 94C154.401 94.2667 152.651 94.4 150.517 94.4ZM150.517 90.95C152.317 90.95 153.701 90.8333 154.667 90.6C155.634 90.3667 156.317 89.9167 156.717 89.25C157.151 88.5833 157.401 87.6167 157.467 86.35C157.567 85.05 157.617 83.35 157.617 81.25C157.617 79.15 157.567 77.4667 157.467 76.2C157.401 74.9 157.151 73.9167 156.717 73.25C156.317 72.5833 155.634 72.1333 154.667 71.9C153.701 71.6667 152.317 71.55 150.517 71.55C148.751 71.55 147.367 71.6667 146.367 71.9C145.401 72.1333 144.717 72.5833 144.317 73.25C143.917 73.9167 143.667 74.9 143.567 76.2C143.467 77.4667 143.417 79.15 143.417 81.25C143.417 83.35 143.467 85.05 143.567 86.35C143.667 87.6167 143.917 88.5833 144.317 89.25C144.717 89.9167 145.401 90.3667 146.367 90.6C147.367 90.8333 148.751 90.95 150.517 90.95ZM173.686 94L165.536 68.5H169.786L175.986 89.05H176.336L182.536 68.5H186.386L192.586 89.05H192.986L199.136 68.5H203.236L195.086 94H190.386L184.536 75.2H184.186L178.386 94H173.686ZM218.567 94.4C216.501 94.4 214.767 94.2667 213.367 94C212.001 93.7333 210.901 93.3 210.067 92.7C209.234 92.0667 208.601 91.25 208.167 90.25C207.734 89.2167 207.451 87.9667 207.317 86.5C207.184 85.0333 207.117 83.3 207.117 81.3C207.117 78.9333 207.217 76.9167 207.417 75.25C207.617 73.55 208.067 72.1833 208.767 71.15C209.501 70.0833 210.634 69.3167 212.167 68.85C213.701 68.35 215.767 68.1 218.367 68.1C220.334 68.1 221.934 68.25 223.167 68.55C224.434 68.85 225.434 69.3167 226.167 69.95C226.901 70.5833 227.434 71.4333 227.767 72.5C228.134 73.5333 228.367 74.7833 228.467 76.25C228.567 77.6833 228.617 79.35 228.617 81.25V82.6H211.167C211.167 84.3333 211.251 85.75 211.417 86.85C211.584 87.95 211.917 88.8 212.417 89.4C212.951 90 213.767 90.4167 214.867 90.65C216.001 90.8833 217.534 91 219.467 91C220.267 91 221.151 90.9833 222.117 90.95C223.084 90.8833 224.051 90.8 225.017 90.7C225.984 90.6 226.851 90.5 227.617 90.4V93.7C226.917 93.8333 226.051 93.95 225.017 94.05C224.017 94.15 222.951 94.2333 221.817 94.3C220.717 94.3667 219.634 94.4 218.567 94.4ZM224.667 80.55V79.2C224.667 77.4667 224.567 76.1 224.367 75.1C224.167 74.0667 223.817 73.3 223.317 72.8C222.851 72.2667 222.201 71.9167 221.367 71.75C220.534 71.5833 219.501 71.5 218.267 71.5C216.667 71.5 215.401 71.6167 214.467 71.85C213.534 72.05 212.834 72.4333 212.367 73C211.901 73.5667 211.584 74.3833 211.417 75.45C211.251 76.5167 211.167 77.9333 211.167 79.7H225.617L224.667 80.55ZM235.597 94V68.5H239.247L239.447 73.4H239.747C240.18 71.9667 240.797 70.8667 241.597 70.1C242.397 69.3333 243.364 68.8167 244.497 68.55C245.63 68.25 246.88 68.1 248.247 68.1V72.1C245.947 72.1 244.18 72.4667 242.947 73.2C241.714 73.9333 240.864 75.0667 240.397 76.6C239.93 78.1333 239.697 80.0667 239.697 82.4V94H235.597ZM263.612 94.4C261.545 94.4 259.812 94.2667 258.412 94C257.045 93.7333 255.945 93.3 255.112 92.7C254.279 92.0667 253.645 91.25 253.212 90.25C252.779 89.2167 252.495 87.9667 252.362 86.5C252.229 85.0333 252.162 83.3 252.162 81.3C252.162 78.9333 252.262 76.9167 252.462 75.25C252.662 73.55 253.112 72.1833 253.812 71.15C254.545 70.0833 255.679 69.3167 257.212 68.85C258.745 68.35 260.812 68.1 263.412 68.1C265.379 68.1 266.979 68.25 268.212 68.55C269.479 68.85 270.479 69.3167 271.212 69.95C271.945 70.5833 272.479 71.4333 272.812 72.5C273.179 73.5333 273.412 74.7833 273.512 76.25C273.612 77.6833 273.662 79.35 273.662 81.25V82.6H256.212C256.212 84.3333 256.295 85.75 256.462 86.85C256.629 87.95 256.962 88.8 257.462 89.4C257.995 90 258.812 90.4167 259.912 90.65C261.045 90.8833 262.579 91 264.512 91C265.312 91 266.195 90.9833 267.162 90.95C268.129 90.8833 269.095 90.8 270.062 90.7C271.029 90.6 271.895 90.5 272.662 90.4V93.7C271.962 93.8333 271.095 93.95 270.062 94.05C269.062 94.15 267.995 94.2333 266.862 94.3C265.762 94.3667 264.679 94.4 263.612 94.4ZM269.712 80.55V79.2C269.712 77.4667 269.612 76.1 269.412 75.1C269.212 74.0667 268.862 73.3 268.362 72.8C267.895 72.2667 267.245 71.9167 266.412 71.75C265.579 71.5833 264.545 71.5 263.312 71.5C261.712 71.5 260.445 71.6167 259.512 71.85C258.579 72.05 257.879 72.4333 257.412 73C256.945 73.5667 256.629 74.3833 256.462 75.45C256.295 76.5167 256.212 77.9333 256.212 79.7H270.662L269.712 80.55ZM288.992 94.4C287.158 94.4 285.625 94.2 284.392 93.8C283.192 93.4 282.242 92.7167 281.542 91.75C280.842 90.75 280.342 89.4 280.042 87.7C279.742 86 279.592 83.8667 279.592 81.3C279.592 78.7 279.725 76.55 279.992 74.85C280.292 73.1167 280.792 71.7667 281.492 70.8C282.192 69.8333 283.142 69.15 284.342 68.75C285.542 68.3167 287.058 68.1 288.892 68.1C290.258 68.1 291.475 68.2167 292.542 68.45C293.608 68.65 294.525 69.0167 295.292 69.55C296.092 70.0833 296.725 70.8167 297.192 71.75H297.442V56.85H301.542V94H297.892L297.692 90.35H297.392C296.925 91.5167 296.242 92.4 295.342 93C294.475 93.5667 293.492 93.9333 292.392 94.1C291.292 94.3 290.158 94.4 288.992 94.4ZM290.592 90.8C292.292 90.8 293.642 90.5667 294.642 90.1C295.642 89.6333 296.342 88.9 296.742 87.9C297.075 86.9667 297.275 85.95 297.342 84.85C297.408 83.75 297.442 82.45 297.442 80.95C297.442 79.7167 297.408 78.6 297.342 77.6C297.275 76.5667 297.092 75.6667 296.792 74.9C296.358 73.7667 295.642 72.9667 294.642 72.5C293.642 72 292.258 71.75 290.492 71.75C288.992 71.75 287.792 71.85 286.892 72.05C285.992 72.25 285.308 72.6833 284.842 73.35C284.375 73.9833 284.058 74.9333 283.892 76.2C283.725 77.4333 283.642 79.1167 283.642 81.25C283.642 83.3833 283.725 85.0833 283.892 86.35C284.058 87.6167 284.375 88.5667 284.842 89.2C285.308 89.8333 285.992 90.2667 286.892 90.5C287.825 90.7 289.058 90.8 290.592 90.8ZM333.452 94.4C332.285 94.4 331.152 94.3 330.052 94.1C328.952 93.9333 327.968 93.5667 327.102 93C326.235 92.4 325.552 91.5167 325.052 90.35H324.752L324.602 94H320.902V56.85H325.002V71.75H325.252C325.718 70.8167 326.335 70.0833 327.102 69.55C327.902 69.0167 328.835 68.65 329.902 68.45C330.968 68.2167 332.185 68.1 333.552 68.1C335.385 68.1 336.902 68.3167 338.102 68.75C339.302 69.15 340.252 69.8333 340.952 70.8C341.652 71.7667 342.135 73.1 342.402 74.8C342.702 76.5 342.852 78.65 342.852 81.25C342.852 83.85 342.702 86 342.402 87.7C342.102 89.4 341.602 90.7333 340.902 91.7C340.202 92.6667 339.235 93.3667 338.002 93.8C336.802 94.2 335.285 94.4 333.452 94.4ZM331.852 90.8C333.385 90.8 334.602 90.7 335.502 90.5C336.435 90.2667 337.135 89.8333 337.602 89.2C338.068 88.5667 338.385 87.6167 338.552 86.35C338.718 85.0833 338.802 83.3833 338.802 81.25C338.802 79.1167 338.718 77.4333 338.552 76.2C338.385 74.9333 338.068 73.9833 337.602 73.35C337.135 72.6833 336.435 72.25 335.502 72.05C334.602 71.85 333.385 71.75 331.852 71.75C330.218 71.75 328.918 71.9667 327.952 72.4C326.985 72.8 326.302 73.45 325.902 74.35C325.502 75.2167 325.252 76.2167 325.152 77.35C325.052 78.45 325.002 79.75 325.002 81.25C325.002 82.7167 325.035 84.0167 325.102 85.15C325.202 86.25 325.452 87.2333 325.852 88.1C326.285 89.0333 326.985 89.7167 327.952 90.15C328.918 90.5833 330.218 90.8 331.852 90.8ZM359.694 104.3C358.727 104.3 357.71 104.267 356.644 104.2C355.61 104.167 354.61 104.117 353.644 104.05C352.71 104.017 351.877 103.95 351.144 103.85V100.6C352.244 100.633 353.244 100.667 354.144 100.7C355.077 100.767 355.927 100.8 356.694 100.8C357.494 100.833 358.21 100.85 358.844 100.85C360.777 100.85 362.294 100.7 363.394 100.4C364.527 100.1 365.36 99.6 365.894 98.9C366.427 98.2333 366.76 97.3333 366.894 96.2C367.06 95.0667 367.144 93.6833 367.144 92.05V90.55H366.844C366.577 91.2167 366.127 91.8333 365.494 92.4C364.86 92.9667 363.994 93.4167 362.894 93.75C361.794 94.0833 360.36 94.25 358.594 94.25C356.727 94.25 355.21 94.0667 354.044 93.7C352.91 93.3 352.044 92.7 351.444 91.9C350.844 91.0667 350.427 90.0333 350.194 88.8C349.994 87.5667 349.894 86.1 349.894 84.4V68.5H353.994V82.95C353.994 84.6833 354.06 86.0667 354.194 87.1C354.327 88.1333 354.61 88.9167 355.044 89.45C355.51 89.95 356.16 90.2833 356.994 90.45C357.827 90.6167 358.91 90.7 360.244 90.7C361.91 90.7 363.21 90.5 364.144 90.1C365.077 89.6667 365.744 89.05 366.144 88.25C366.577 87.45 366.844 86.5 366.944 85.4C367.077 84.2667 367.144 83 367.144 81.6V68.5H371.194V90.85C371.194 93.2833 371.06 95.35 370.794 97.05C370.56 98.7833 370.044 100.167 369.244 101.2C368.477 102.267 367.327 103.05 365.794 103.55C364.26 104.05 362.227 104.3 359.694 104.3Z" fill="#050315"/>
</g>
<g filter="url(#filter2_i_1972_343)">
<path d="M390.1 94V59.6H406.05C408.183 59.6 409.917 59.8667 411.25 60.4C412.617 60.9333 413.667 61.7 414.4 62.7C415.133 63.6667 415.633 64.85 415.9 66.25C416.2 67.65 416.35 69.2333 416.35 71C416.35 72.6333 416.217 74.15 415.95 75.55C415.717 76.9167 415.233 78.1167 414.5 79.15C413.767 80.1833 412.7 80.9833 411.3 81.55C409.933 82.1167 408.117 82.4 405.85 82.4H397.2V94H390.1ZM397.2 76.6H403.05C404.483 76.6 405.617 76.5333 406.45 76.4C407.283 76.2333 407.9 75.95 408.3 75.55C408.7 75.15 408.95 74.5833 409.05 73.85C409.183 73.1167 409.25 72.1667 409.25 71C409.25 69.8333 409.183 68.8833 409.05 68.15C408.95 67.4167 408.7 66.85 408.3 66.45C407.933 66.0167 407.35 65.7333 406.55 65.6C405.75 65.4333 404.65 65.35 403.25 65.35H397.2V76.6ZM428.173 94.4C426.54 94.4 425.156 94.1667 424.023 93.7C422.89 93.2 422.023 92.4 421.423 91.3C420.856 90.1667 420.573 88.6833 420.573 86.85C420.573 84.8833 420.806 83.3333 421.273 82.2C421.74 81.0333 422.556 80.2 423.723 79.7C424.89 79.1667 426.506 78.9 428.573 78.9C428.906 78.9 429.373 78.9167 429.973 78.95C430.573 78.95 431.256 78.9667 432.023 79C432.79 79 433.556 79.0167 434.323 79.05C435.09 79.05 435.79 79.0667 436.423 79.1V78.1C436.423 77 436.34 76.1333 436.173 75.5C436.006 74.8667 435.69 74.4 435.223 74.1C434.756 73.8 434.073 73.6167 433.173 73.55C432.273 73.4833 431.106 73.45 429.673 73.45C428.94 73.45 428.09 73.4667 427.123 73.5C426.156 73.5333 425.223 73.5833 424.323 73.65C423.423 73.7167 422.706 73.7833 422.173 73.85V68.85C423.606 68.6167 425.156 68.4333 426.823 68.3C428.49 68.1667 430.173 68.1 431.873 68.1C433.873 68.1 435.54 68.2333 436.873 68.5C438.24 68.7333 439.323 69.1167 440.123 69.65C440.956 70.1833 441.573 70.8667 441.973 71.7C442.406 72.5 442.69 73.4667 442.823 74.6C442.956 75.7 443.023 76.9667 443.023 78.4V94H436.873L436.673 90.9H436.273C435.706 91.9333 434.956 92.7 434.023 93.2C433.123 93.7 432.156 94.0167 431.123 94.15C430.123 94.3167 429.14 94.4 428.173 94.4ZM431.323 89.3C432.056 89.3 432.69 89.25 433.223 89.15C433.79 89.05 434.273 88.8833 434.673 88.65C435.106 88.3833 435.44 88.05 435.673 87.65C435.906 87.2167 436.09 86.6833 436.223 86.05C436.356 85.4167 436.423 84.65 436.423 83.75V83H430.373C429.44 83 428.723 83.0667 428.223 83.2C427.723 83.3333 427.39 83.6333 427.223 84.1C427.056 84.5667 426.973 85.2667 426.973 86.2C426.973 87.0667 427.073 87.7333 427.273 88.2C427.473 88.6333 427.89 88.9333 428.523 89.1C429.156 89.2333 430.09 89.3 431.323 89.3ZM450.195 94V68.5H456.395L456.595 72.9H456.995C457.428 71.6333 458.011 70.65 458.745 69.95C459.511 69.25 460.428 68.7667 461.495 68.5C462.561 68.2333 463.778 68.1 465.145 68.1V74.4C462.978 74.4 461.278 74.7 460.045 75.3C458.845 75.9 457.995 76.8833 457.495 78.25C457.028 79.6167 456.795 81.4667 456.795 83.8V94H450.195ZM479.527 94.4C477.494 94.4 475.81 94.2167 474.477 93.85C473.177 93.4833 472.127 92.95 471.327 92.25C470.56 91.55 469.994 90.6833 469.627 89.65C469.26 88.5833 469.027 87.35 468.927 85.95C468.827 84.5167 468.777 82.9333 468.777 81.2C468.777 79.5333 468.827 78.0167 468.927 76.65C469.06 75.25 469.327 74.0167 469.727 72.95C470.127 71.8833 470.71 71 471.477 70.3C472.244 69.5667 473.277 69.0167 474.577 68.65C475.877 68.2833 477.51 68.1 479.477 68.1C480.744 68.1 482.044 68.1667 483.377 68.3C484.71 68.4333 485.844 68.6167 486.777 68.85V73.85C486.077 73.7167 485.194 73.6167 484.127 73.55C483.06 73.4833 482.077 73.45 481.177 73.45C479.877 73.45 478.844 73.55 478.077 73.75C477.344 73.95 476.777 74.3333 476.377 74.9C476.01 75.4333 475.76 76.2167 475.627 77.25C475.494 78.2833 475.427 79.6167 475.427 81.25C475.427 82.9167 475.494 84.2667 475.627 85.3C475.76 86.3333 476.027 87.1333 476.427 87.7C476.827 88.2333 477.41 88.6 478.177 88.8C478.977 88.9667 480.01 89.05 481.277 89.05C482.077 89.05 482.977 89.0167 483.977 88.95C485.01 88.8833 486.01 88.8 486.977 88.7V93.65C486.044 93.8833 484.894 94.0667 483.527 94.2C482.16 94.3333 480.827 94.4 479.527 94.4ZM492.773 94V56.85H499.373V71.5H499.773C500.206 70.7 500.773 70.05 501.473 69.55C502.173 69.05 503.006 68.7 503.973 68.5C504.939 68.2667 506.039 68.15 507.273 68.15C509.006 68.15 510.406 68.3667 511.473 68.8C512.539 69.2 513.356 69.8167 513.923 70.65C514.489 71.4833 514.856 72.5167 515.023 73.75C515.223 74.9833 515.323 76.4167 515.323 78.05V94H508.723V80.5C508.723 78.9667 508.673 77.75 508.573 76.85C508.473 75.95 508.273 75.2833 507.973 74.85C507.673 74.4167 507.223 74.15 506.623 74.05C506.023 73.9167 505.223 73.85 504.223 73.85C503.156 73.85 502.289 73.9833 501.623 74.25C500.989 74.4833 500.506 74.8833 500.173 75.45C499.873 75.9833 499.656 76.7 499.523 77.6C499.423 78.4667 499.373 79.5333 499.373 80.8V94H492.773Z" fill="url(#paint0_linear_1972_343)"/>
<path d="M535.629 94V59.6H539.929V90.2H555.979V94H535.629ZM561.733 61.3V56.85H566.083V61.3H561.733ZM561.833 94V68.5H565.933V94H561.833ZM574.529 94V68.5H578.229L578.379 72.15H578.679C579.045 71.35 579.545 70.65 580.179 70.05C580.845 69.45 581.729 68.9833 582.829 68.65C583.962 68.2833 585.395 68.1 587.129 68.1C589.029 68.1 590.545 68.3 591.679 68.7C592.812 69.1 593.679 69.7 594.279 70.5C594.912 71.3 595.329 72.3333 595.529 73.6C595.729 74.8333 595.829 76.3167 595.829 78.05V94H591.779V79.45C591.779 77.7167 591.695 76.35 591.529 75.35C591.395 74.3167 591.112 73.55 590.679 73.05C590.245 72.5167 589.612 72.1667 588.779 72C587.945 71.8333 586.845 71.75 585.479 71.75C583.845 71.75 582.562 71.9667 581.629 72.4C580.695 72.8 580.012 73.4 579.579 74.2C579.145 74.9667 578.879 75.9167 578.779 77.05C578.679 78.15 578.629 79.4167 578.629 80.85V94H574.529ZM613.16 94.4C611.293 94.4 609.777 94.2 608.61 93.8C607.477 93.4 606.61 92.8 606.01 92C605.41 91.2 604.993 90.1833 604.76 88.95C604.56 87.6833 604.46 86.1833 604.46 84.45V68.5H608.56V83.05C608.56 84.75 608.627 86.1167 608.76 87.15C608.893 88.1833 609.177 88.9667 609.61 89.5C610.077 90 610.727 90.3333 611.56 90.5C612.393 90.6667 613.477 90.75 614.81 90.75C616.477 90.75 617.777 90.55 618.71 90.15C619.643 89.7167 620.31 89.1167 620.71 88.35C621.143 87.55 621.41 86.6 621.51 85.5C621.643 84.3667 621.71 83.0833 621.71 81.65V68.5H625.76V94H622.11L621.96 90.35H621.61C621.277 91.15 620.777 91.85 620.11 92.45C619.477 93.05 618.593 93.5333 617.46 93.9C616.327 94.2333 614.893 94.4 613.16 94.4ZM631.592 94L641.242 81.05L631.942 68.5H636.592L643.642 78H643.942L651.042 68.5H655.492L646.242 81L655.892 94H651.192L643.792 84.1H643.492L636.092 94H631.592Z" fill="#050315"/>
</g>
<defs>
<filter id="filter0_i_1972_343" x="16" y="16" width="78" height="123" filterUnits="userSpaceOnUse" color-interpolation-filters="sRGB">
<feFlood flood-opacity="0" result="BackgroundImageFix"/>
<feBlend mode="normal" in="SourceGraphic" in2="BackgroundImageFix" result="shape"/>
<feColorMatrix in="SourceAlpha" type="matrix" values="0 0 0 0 0 0 0 0 0 0 0 0 0 0 0 0 0 0 127 0" result="hardAlpha"/>
<feOffset dy="1"/>
<feGaussianBlur stdDeviation="2.5"/>
<feComposite in2="hardAlpha" operator="arithmetic" k2="-1" k3="1"/>
<feColorMatrix type="matrix" values="0 0 0 0 0 0 0 0 0 0 0 0 0 0 0 0 0 0 0.25 0"/>
<feBlend mode="normal" in2="shape" result="effect1_innerShadow_1972_343"/>
</filter>
<filter id="filter1_i_1972_343" x="109" y="56.8496" width="262.193" height="48.4512" filterUnits="userSpaceOnUse" color-interpolation-filters="sRGB">
<feFlood flood-opacity="0" result="BackgroundImageFix"/>
<feBlend mode="normal" in="SourceGraphic" in2="BackgroundImageFix" result="shape"/>
<feColorMatrix in="SourceAlpha" type="matrix" values="0 0 0 0 0 0 0 0 0 0 0 0 0 0 0 0 0 0 127 0" result="hardAlpha"/>
<feOffset dy="1"/>
<feGaussianBlur stdDeviation="2.5"/>
<feComposite in2="hardAlpha" operator="arithmetic" k2="-1" k3="1"/>
<feColorMatrix type="matrix" values="0 0 0 0 0 0 0 0 0 0 0 0 0 0 0 0 0 0 0.25 0"/>
<feBlend mode="normal" in2="shape" result="effect1_innerShadow_1972_343"/>
</filter>
<filter id="filter2_i_1972_343" x="390.1" y="56.8496" width="265.793" height="38.5508" filterUnits="userSpaceOnUse" color-interpolation-filters="sRGB">
<feFlood flood-opacity="0" result="BackgroundImageFix"/>
<feBlend mode="normal" in="SourceGraphic" in2="BackgroundImageFix" result="shape"/>
<feColorMatrix in="SourceAlpha" type="matrix" values="0 0 0 0 0 0 0 0 0 0 0 0 0 0 0 0 0 0 127 0" result="hardAlpha"/>
<feOffset dy="1"/>
<feGaussianBlur stdDeviation="2.5"/>
<feComposite in2="hardAlpha" operator="arithmetic" k2="-1" k3="1"/>
<feColorMatrix type="matrix" values="0 0 0 0 0 0 0 0 0 0 0 0 0 0 0 0 0 0 0.25 0"/>
<feBlend mode="normal" in2="shape" result="effect1_innerShadow_1972_343"/>
</filter>
<linearGradient id="paint0_linear_1972_343" x1="446.451" y1="52" x2="551.007" y2="151.103" gradientUnits="userSpaceOnUse">
<stop stop-color="#1D9FFB"/>
<stop offset="0.350962" stop-color="#3EDBB2"/>
</linearGradient>
</defs>
</svg>
