<svg width="500" height="500" viewBox="0 0 500 500" fill="none" xmlns="http://www.w3.org/2000/svg">
<g clip-path="url(#clip0_7_1912)">
<rect width="500" height="500" fill="#EFEFEF"/>
<g opacity="0.05" clip-path="url(#clip1_7_1912)">
<path d="M479.827 51.3375L116.78 210.538C45.5513 241.772 13.1295 324.836 44.3643 396.065L123.948 577.55C155.182 648.779 238.246 681.201 309.475 649.966L672.522 490.766C743.751 459.531 776.173 376.468 744.938 305.239L665.355 123.754C634.12 52.5245 551.056 20.1027 479.827 51.3375ZM492.824 318.13L358.529 473.581C354.951 477.724 348.278 476.716 346.08 471.704L272.831 304.665C270.602 299.581 274.521 293.934 280.063 294.244L487.606 305.831C493.776 306.176 496.864 313.454 492.824 318.13Z" fill="black"/>
</g>
<rect width="500" height="500" fill="url(#paint0_radial_7_1912)" fill-opacity="0.3"/>
<path d="M335.5 93.4997C248.5 72 208.5 121.5 186.5 144L218.5 180L177 160.5C141 211 148 289 158 309L215.5 271C196.7 290.2 174.667 323.333 167 336L186 365.5C223.5 412.5 249.667 411.167 263.5 412.5C277.333 413.833 310.6 409.4 333 379C355.4 348.6 348 307.667 341.5 291L285 297L333 265.5L294.5 200C245.5 124 305 93.4997 335.5 93.4997Z" fill="#BB2322"/>
<g style="mix-blend-mode:luminosity" clip-path="url(#clip2_7_1912)">
<path d="M254.974 411.553C245.421 410.626 234.268 406.529 223.59 400.026C215.986 395.394 208.358 389.097 200.351 380.841C193.101 373.366 187.423 366.221 180.791 356.232C176.03 349.06 283.01 297.757 286.619 296.018C288.832 294.953 290.518 297.368 317.27 292.99C326.656 291.454 335.988 290.164 338.009 290.122C342.42 290.033 342.218 289.776 343.958 297.658C347.744 314.804 348.42 339.548 345.424 351.358C340.539 370.616 326.633 389.181 308.717 400.364C301.907 404.616 292.708 408.512 285.553 410.177C278.165 411.896 264.735 412.5 254.974 411.553Z" fill="url(#paint1_linear_7_1912)"/>
<path d="M193.552 296.613C199.399 289.864 201.61 287.409 207.737 280.856C222.61 264.951 248.009 240.702 284.742 207.339L294.001 198.929L299.824 208.107C306.79 219.084 315.059 232.823 319.821 241.329C324.173 249.103 331.773 263.507 331.756 263.949C331.74 264.359 329.979 265.628 308.635 280.608C287.863 295.188 283.505 297.315 282.946 298.098C282.545 298.66 281.306 298.258 243.97 298.655C221.629 298.892 200.666 299.083 197.385 299.079L191.421 299.072L193.552 296.613Z" fill="url(#paint2_linear_7_1912)"/>
<path d="M185.093 363.76C181.112 358.347 174.025 347.113 169.588 339.182L167.506 335.46L168.297 333.899C170.014 330.511 178.329 316.971 181.28 312.756C182.998 310.302 186.041 306.204 188.043 303.649L191.681 299.005L197.003 298.986C199.93 298.976 220.44 298.751 242.58 298.485C264.721 298.22 282.886 298.046 282.946 298.098C283.007 298.149 279.81 300.481 275.842 303.279C258.374 315.596 186.791 365.673 186.653 365.673C186.569 365.673 185.867 364.812 185.093 363.76Z" fill="url(#paint3_linear_7_1912)"/>
<path d="M277.66 208.364C272.862 206.146 227.999 185.808 223.503 183.813C221.764 183.041 220.419 182.283 220.514 182.128C220.962 181.404 217.469 177.126 207.182 165.802C203.451 161.695 197.472 155.07 193.896 151.081L187.395 143.828L198.105 133.209C208.88 122.526 214.307 117.828 222.043 112.49C235.555 103.165 250.283 96.4641 266.557 92.2366C274.598 90.148 280.031 89.3006 286.959 89.055C296.11 88.7306 317.41 89.8948 325.029 91.1358C328.162 91.6461 333.59 93.0333 333.59 93.3236C333.59 93.4592 331.664 93.6848 329.31 93.825C311.657 94.8761 301.784 98.6756 291.934 108.209C284.385 115.515 279.723 122.506 277.151 130.378C273.639 141.123 273.517 151.99 276.77 164.242C279.441 174.304 283.194 182.075 292.773 197.375L293.951 199.257L292.38 200.654C291.516 201.422 289.081 203.608 286.969 205.512C284.856 207.415 282.797 209.252 282.393 209.593C281.69 210.185 281.482 210.131 277.66 208.364Z" fill="url(#paint4_linear_7_1912)"/>
<path d="M157.941 306.619C156.89 304.574 154.775 296.569 153.202 288.676C152.135 283.323 151.707 274.59 151.703 258.074C151.696 233.979 153.138 221.689 157.93 204.994C161.6 192.208 169.742 173.195 175.168 164.74L176.967 161.937L186.738 166.311C214.186 178.6 282.101 209.33 282.393 209.593C282.543 209.728 276.149 215.831 268.185 223.156C249.66 240.195 241.61 247.771 228.691 260.324C222.919 265.932 218.181 270.266 218.096 270.014C217.907 269.447 213.548 272.174 190.862 287.049C170.411 300.458 159.206 307.62 158.678 307.62C158.556 307.62 158.225 307.169 157.941 306.619Z" fill="url(#paint5_linear_7_1912)"/>
</g>
</g>
<defs>
<radialGradient id="paint0_radial_7_1912" cx="0" cy="0" r="1" gradientUnits="userSpaceOnUse" gradientTransform="translate(250 265.5) rotate(179.572) scale(250.274 582.348)">
<stop stop-color="#353535"/>
<stop offset="1" stop-color="#666666" stop-opacity="0"/>
</radialGradient>
<linearGradient id="paint1_linear_7_1912" x1="245.511" y1="324.562" x2="326.97" y2="384.962" gradientUnits="userSpaceOnUse">
<stop stop-color="#25D8A3"/>
<stop offset="1" stop-color="#189C76"/>
</linearGradient>
<linearGradient id="paint2_linear_7_1912" x1="197.385" y1="299.079" x2="319.821" y2="241.329" gradientUnits="userSpaceOnUse">
<stop stop-color="#15B7BA"/>
<stop offset="1" stop-color="#017FD1"/>
</linearGradient>
<linearGradient id="paint3_linear_7_1912" x1="169.588" y1="339.182" x2="275.842" y2="303.279" gradientUnits="userSpaceOnUse">
<stop stop-color="#003BAF"/>
<stop offset="1" stop-color="#1D47D1"/>
</linearGradient>
<linearGradient id="paint4_linear_7_1912" x1="220.514" y1="182.128" x2="325.029" y2="91.1358" gradientUnits="userSpaceOnUse">
<stop stop-color="#189974"/>
<stop offset="1" stop-color="#26DDA7"/>
</linearGradient>
<linearGradient id="paint5_linear_7_1912" x1="151.703" y1="234.779" x2="277.66" y2="208.364" gradientUnits="userSpaceOnUse">
<stop stop-color="#1B66BD"/>
<stop offset="1" stop-color="#34AEE1"/>
</linearGradient>
<clipPath id="clip0_7_1912">
<rect width="500" height="500" fill="white"/>
</clipPath>
<clipPath id="clip1_7_1912">
<rect width="678.073" height="678.073" fill="white" transform="translate(-52 176.312) rotate(-23.678)"/>
</clipPath>
<clipPath id="clip2_7_1912">
<rect width="323" height="323" fill="white" transform="translate(88 89)"/>
</clipPath>
</defs>
</svg>
