<svg width="438" height="438" viewBox="0 0 438 438" fill="none" xmlns="http://www.w3.org/2000/svg">
<path d="M338.619 271.955L264.458 281.519L135.949 355.713C146.568 370.223 159.065 383.307 173.298 394.467C189.967 406.346 210.214 415.006 234.278 415.908C302.603 418.502 340.706 366.003 342.443 307.222C342.802 295.085 341.344 283.399 338.619 271.955Z" fill="#8500B2"/>
<path d="M149.525 281.519C137.049 295.076 124.523 311.185 118.189 326.753C123.323 336.903 129.271 346.586 135.951 355.714L264.46 281.519H149.525ZM140.935 362.214C141.689 363.161 142.451 364.1 143.222 365.034C142.451 364.1 141.688 363.161 140.935 362.214ZM148.736 371.466C149.286 372.078 149.857 372.669 150.415 373.274C149.858 372.669 149.285 372.078 148.736 371.466ZM155.661 378.749C156.233 379.322 156.795 379.903 157.374 380.47C156.796 379.903 156.232 379.323 155.661 378.749ZM164.138 386.78C164.681 387.263 165.231 387.737 165.779 388.214C165.231 387.737 164.68 387.263 164.138 386.78Z" fill="#4B0080"/>
<path d="M286.55 167.911L184.511 248.473C184.511 248.473 167.063 262.454 149.517 281.519H264.452L265.25 281.058L327.203 239.084C316.694 215.579 301.908 192.409 286.55 167.911ZM149.517 281.519C145.177 286.235 140.861 291.248 136.772 296.457C140.857 291.26 145.182 286.229 149.517 281.519ZM135.688 297.82C134.838 298.923 134.027 300.039 133.203 301.156C134.027 300.041 134.838 298.921 135.688 297.82ZM130.9 304.328C130.207 305.312 129.543 306.297 128.879 307.287C129.543 306.298 130.208 305.31 130.9 304.328ZM125.569 312.385C125.44 312.596 125.318 312.807 125.191 313.018C125.318 312.807 125.44 312.596 125.569 312.385Z" fill="#A300B2"/>
<path d="M128.924 112.324C108.513 144.226 96.6191 181.816 95.1426 220.98C94.2364 246.129 97.668 270.818 104.892 294.001L184.515 248.473L272.795 178.774L185.535 137.248L128.924 112.324ZM307.241 201.429C307.66 202.136 308.094 202.847 308.509 203.552C308.094 202.847 307.66 202.135 307.241 201.429ZM314.52 214.058C315.085 215.072 315.627 216.085 316.181 217.098C315.628 216.086 315.085 215.071 314.52 214.058ZM320.433 225.116C320.98 226.177 321.53 227.24 322.062 228.302C321.53 227.24 320.979 226.177 320.433 225.116Z" fill="#7600B2"/>
<path d="M285.873 22.0212C238.195 22.7546 192.238 42.4028 157.025 77.3641C152.519 81.8382 148.247 86.5302 144.189 91.3983L185.537 137.248L272.797 178.774L286.556 167.911C281.07 159.161 275.527 150.259 270.058 141.087C246.092 100.887 258.906 36.8152 304.196 22.683C301.278 22.4267 298.355 22.2417 295.429 22.1281C292.238 22.0078 289.051 21.9724 285.873 22.0212ZM299.967 189.414C300.632 190.494 301.297 191.573 301.954 192.649C301.3 191.578 300.629 190.489 299.967 189.414Z" fill="#B000CC"/>
</svg>
